<?xml version="1.0" encoding="utf-8"?>
<!-- Generator: Adobe Illustrator 23.0.5, SVG Export Plug-In . SVG Version: 6.00 Build 0)  -->
<svg version="1.1" id="Layer_1" xmlns="http://www.w3.org/2000/svg" xmlns:xlink="http://www.w3.org/1999/xlink" x="0px" y="0px"
	 viewBox="0 0 305 104" style="enable-background:new 0 0 305 104;" xml:space="preserve" height="92px">
<style type="text/css">
	.st0{fill:#4F4F4F;}
	.st1{fill:#EC1C24;}
	.st2{fill:#F6921E;}
	.st3{fill:#231F20;}
	.st4{fill:#0096D6;}
	.st5{fill:#88C440;}
	.st6{fill:#FFFFFF;}
	.st7{fill:#4D4D4D;}
	.st8{fill:#FFF100;}
	.st9{fill:url(#SVGID_1_);}
	.st10{fill:url(#SVGID_2_);}
	.st11{fill:url(#SVGID_3_);}
	.st12{fill:url(#SVGID_4_);}
	.st13{fill:url(#SVGID_5_);}
	.st14{fill:url(#SVGID_6_);}
	.st15{fill:url(#SVGID_7_);}
	.st16{fill:url(#SVGID_8_);}
	.st17{fill:url(#SVGID_9_);}
	.st18{fill:url(#SVGID_10_);}
	.st19{fill:url(#SVGID_11_);}
	.st20{fill:url(#SVGID_12_);}
	.st21{fill:url(#SVGID_13_);}
	.st22{fill:url(#SVGID_14_);}
	.st23{fill:url(#SVGID_15_);}
	.st24{fill:url(#SVGID_16_);}
</style>
<g>
	<g>
		<path class="st0" d="M42.7,51.9c-6.7,0-9.6,3.2-9.6,9.2v4.5h6.1v-4.4c0-2.3,0.5-4,3.5-4c2.9,0,3.5,1.7,3.5,4v5
			c0,3.3-1.1,4.7-4.3,4.7h-9v4.8l11.1,11.4h7.8L40.3,75.9h1.5c7.4,0,10.4-2.9,10.4-9.7V61C52.2,55.1,49.2,51.9,42.7,51.9z"/>
		<path class="st0" d="M142.9,44v-6.5h-6.1V44h-2H132H97.3h-2.4H69.4h-2.4H56h-2.4h-1.3v-2.2c0-6.3-2.5-8.8-8.7-8.8h-2.7
			c-3.7,0-4.8-0.8-4.8-4.3h-5.5c-0.1,0.6-0.1,1.2-0.1,1.6c0,6,2.9,7.7,8.6,7.7h2.3c3.3,0,4.8,0.4,4.8,4.1V44H31.7h-2.4H3.4v5.2h17.7
			v3l-7.8,3.3c-5.1,2.3-6.8,4.6-6.8,10.4v1.8c0,5.2,2.1,7.8,6.8,11l8.3,5.5H27v-35h2.3h2.4h21.8H56h3.4c-1.3,1.8-1.8,4.3-1.8,7.8
			v16.9c0,6.5,2.2,10.5,8.3,10.5c0.6,0,0.8,0,1.5-0.1v-5.2H67c-2.6,0-3.4-1.2-3.4-4.5V54.8c0-3.3,0.7-5.7,3.8-5.7h1.9H71v4.3
			c0,2.8,0.3,5.1,2.1,7.6l0.5,0.8c-2.1,1.3-3,3.6-3,6.7V72c0,5.8,2.9,8.7,9.1,8.7h1.2v-5.5h-1.2c-2.6,0-3.2-1.2-3.2-3.2v-3.3
			c0-1.9,0.6-3.2,3.2-3.2h3.2c2.6,0,3.5,1.2,3.5,3.4v15.2h6.1v-35h2.3h2.4h26.6v6.6c-0.8-0.8-2.3-1.2-4-1.2c-3.1,0-4.9,1.4-5.9,3.2
			c-1-1.9-3.2-3.2-6.7-3.2c-6.2,0-9.1,3.3-9.1,9.4v6.5c0,6.2,2.8,9.3,10.2,9.3h3.3v-5.4h-3c-3.8,0-4.4-1.8-4.4-4.1V64
			c0-2.3,0.5-3.9,3.4-3.9c3,0,3.4,1.6,3.4,3.9v4.5h6.1V64c0-2.4,0.3-3.9,3.2-3.9c2.9,0,3.4,1.5,3.4,3.9v20.2h6.1v-35h2h2.7h2v35h6.1
			v-35h4.8V44H142.9z M21.5,77.2l-5.1-3.5c-3.4-2.4-3.8-3.5-3.8-7.1c0-3.8,0.4-4.8,3.4-6.2l5.1-2.1v11.7c0,2.9,0.2,5.2,0.5,7
			L21.5,77.2z M86.4,61.5c-0.4-0.4-1.6-1.2-3.7-1.2h-3.1h-0.2l-0.7-1.1c-1.3-2-1.7-3.3-1.7-5.8v-4.3h9.4L86.4,61.5L86.4,61.5z"/>
	</g>
	<g>
		<g>
			<g>
				<path id="path4_3_" class="st1" d="M96.4,11.9H86.1c-0.2,0-0.3,0.1-0.3,0.4V13c0,0.2,0.2,0.4,0.3,0.4h7.7v4.3
					c-0.2-0.3-0.4-0.6-0.8-0.9c-0.9-0.9-1.9-1.4-2.9-1.4c-0.8,0-1.5,0.4-2,1.1c-0.4,0.6-0.7,1.3-0.7,2c0,0.7,0.1,1.5,0.7,2.3
					c0.7,1,1.6,1.3,2.5,1.3c1.2,0,2.2-0.9,2.2-1.9c0-0.6-0.3-1.1-0.9-1.4l-0.6-0.3v0.8c-0.1,0.3-0.5,0.6-0.9,0.6
					c-0.4,0-0.8-0.1-1-0.4c-0.2-0.2-0.3-0.5-0.2-0.7c0-0.3,0.1-0.5,0.3-0.9c0.3-0.3,0.5-0.5,0.9-0.5c1.1,0,1.9,0.5,2.6,1.5
					c0.6,0.8,0.8,1.7,0.8,2.6v2.1l1.5,1c0.1,0,0.1,0,0.2,0c0.2,0,0.3-0.1,0.3-0.4v-11h0.6c0.2,0,0.3-0.1,0.3-0.4v-0.8
					C96.7,12,96.6,11.9,96.4,11.9z"/>
				<path id="path6_3_" class="st1" d="M117.1,11.9H104c-0.2,0-0.3,0.1-0.3,0.4v1.4c-1.2-1.3-2.4-2-3.4-2c-1,0-1.8,0.3-2.5,0.8
					c-0.7,0.6-1,1.2-1,1.9c0,2.3,2.6,2.3,3.2,1.9c0.1,0,0.3-0.1,0.4-0.1c0.5,0,0.7,0.4,0.7,0.8c0,0.5-0.8,1-1.6,1
					c-0.5,0-0.8-0.1-1-0.5l-0.4-0.6l-0.3,0.7c-0.1,0.1-0.2,0.4-0.2,0.6c0,0.5,0.3,1,0.8,1.4c0.5,0.4,1.1,0.6,1.6,0.6
					c1,0,1.8-0.4,2.3-1c0.4-0.5,0.7-1.2,0.7-2c0-0.5-0.2-0.8-0.5-1.3c-0.4-0.6-0.9-0.9-1.5-0.9c-0.2,0-0.4,0.1-0.8,0.1
					c-0.1-0.1-0.3,0-0.3,0c-0.1,0-0.3-0.1-0.3-0.2c-0.1-0.1-0.2-0.3-0.2-0.5c0-0.6,0.6-1.1,1.4-1.1h0.1c0.6,0,1.2,0.3,1.8,0.9
					c0.4,0.4,0.8,0.9,1.1,1.4v8.2l1.5,0.9c0.1,0,0.1,0,0.2,0c0.2,0,0.3-0.1,0.3-0.4v-11h2.3v7.1l1.8,0.8h0.1c0.2,0,0.3-0.1,0.3-0.3
					v0c0.3-2.1,1.2-3.5,2.8-4.4v0.4c0,0.3,0,1,0.1,1.5c0,0.3,0,0.4,0.1,0.5c0,0.8,0.1,2.1,0.4,3c0.5,1.7,1.4,2.1,2,2.2h0.1
					c0.4,0,0.7-0.1,0.8-0.3c0.1-0.1,0.3-0.4,0.3-0.6c0-0.4-0.1-0.6-0.2-0.8l-0.2-0.3l-0.3,0c-0.3,0.1-0.4,0.1-0.4,0h-0.1
					c-0.1,0-0.1,0-0.2,0c-0.1,0-0.3-0.3-0.4-0.8c-0.1-0.4-0.2-1-0.2-1.3c0-2.3,0.5-4,1.2-4.4h0.1c0.1-0.1,0.2-0.1,0.2-0.3
					c0-0.1,0-0.1-0.1-0.1V15c-0.3-0.7-1.1-1.2-2.1-1.5H114c-0.8,0.1-1.8,0.7-3,1.7c-0.3,0.3-0.6,0.6-0.9,0.8v-2.8h7.1
					c0.2,0,0.3-0.1,0.3-0.4v-0.8C117.4,12,117.3,11.9,117.1,11.9L117.1,11.9z"/>
				<g id="g68_3_">
					<path id="path8_3_" class="st1" d="M80,17.2c0,0.4,0,0.6-0.1,1c-0.1,1.4-0.5,2.8-1,4c-0.3,0.5-0.5,1-0.8,1.4
						c-2.1,3.4-5.9,5.7-10.3,5.7c-1.8,0-3.6-0.4-5.2-1.1c-4.1-1.9-6.9-6.1-6.9-11c0-4.7,2.7-8.9,6.7-10.8c-0.3,0.4-0.6,0.8-0.8,1.3
						c0,0.1,0,0.1,0,0.1c-0.2,0.2-0.3,0.3-0.5,0.4c-0.2,0.1-0.3,0.4-0.5,0.6c0,0.1-0.1,0.1-0.1,0.1c0,0.1-0.1,0.1-0.1,0.1l-0.2,0.2
						c-0.2,0.1-0.3,0.3-0.3,0.4c-0.5,0.6-0.9,1.4-1.2,2.1c0,0.1,0,0.1-0.1,0.3s0,0.2-0.1,0.3c-0.2,0.1-0.2,0.1-0.2,0.2l-0.2,0.4
						c0,0.1,0,0.2-0.1,0.3c0,0.1,0,0.1,0,0.1c0,0.1,0,0.2,0,0.3c0,0.3-0.2,0.6-0.2,0.8c0,0.1,0,0.1,0,0.3V16c0,3.3,1.5,6.2,3.9,8.2
						c1.8,1.5,4.2,2.4,6.7,2.4c2.3,0,4.4-0.8,6.2-2c1.3-0.9,2.3-2.1,3.1-3.5c0.1-0.2,0.2-0.4,0.3-0.5c0.6-1.3,0.9-2.7,1-4.2V16
						c0-0.4,0-0.7-0.1-1l0.1,0.1c0.2,0.1,0.3,0.3,0.5,0.4c0.2-0.3,0.3-0.5,0.5-0.7c0.1,0.4,0.2,0.9,0.2,1.4
						C79.9,16.5,80,16.8,80,17.2"/>
					<path id="path10_3_" class="st2" d="M78.8,16v0.3c0,2.1-0.9,3.9-1,4.2c-0.1,0.2-0.2,0.4-0.3,0.5c-0.8,1.4-1.8,2.6-3.1,3.5
						c-1.7,1.2-3.9,2-6.2,2c-2.5,0-4.9-0.9-6.7-2.4c-2.4-1.9-3.9-4.9-3.9-8.2v-1.2c0-0.1,0-0.1,0-0.3c0-0.3,0.2-0.6,0.2-0.9
						c0-0.1,0-0.2,0-0.3c0-0.1,0-0.1,0-0.1c0-0.1,0-0.2,0.1-0.3c0-0.1,0.1-0.3,0.2-0.4c0-0.1,0-0.1,0-0.1c0-0.1,0-0.2,0.1-0.3
						c0-0.1,0-0.1,0.1-0.3c0.3-0.8,0.8-1.5,1.2-2.1c0.1-0.1,0.3-0.3,0.3-0.4c0-0.1,0.1-0.1,0.2-0.2c0-0.1,0-0.1,0.1-0.1
						c0-0.1,0.1-0.1,0.1-0.1c0.2-0.2,0.3-0.4,0.5-0.6c0.2-0.2,0.3-0.3,0.5-0.4c0,0.1,0,0.1,0,0.1c0,0.1,0,0.1,0,0.1
						c-0.6,1.2-1,2.7-1.1,4.3c0,0.4,0,0.9,0,1.3c0,5.5,3.2,10,7.3,10h0.4c0.6,0,1.1-0.1,1.7-0.3c2.7-0.8,4.7-3.2,4.7-6.2v-0.2
						c-0.1-1.7-0.8-3.3-2-4.4c0.8,0,1.6,0.1,2.4,0.4c1.5,0.4,2.8,1.1,4,2l0.1,0.1C78.7,15.3,78.8,15.6,78.8,16"/>
					<path id="path12_3_" class="st2" d="M78.8,16v0.3c0,2.3-1,4.2-1,4.2c-0.1,0.2-0.2,0.4-0.3,0.5c-0.8,1.4-1.8,2.6-3.1,3.5
						c-1.8,1.3-4,2-6.2,2c-2.4,0-4.8-0.8-6.7-2.4c-2.5-2-3.9-5-3.9-8.2s1.4-6.2,3.9-8.3l0.1-0.1c0,0.1,0,0.1,0,0.1
						c0,0.1,0,0.1,0,0.1c-2.4,2-3.8,5-3.8,8.1c0,3.2,1.4,6.1,3.9,8.2c1.8,1.5,4.1,2.4,6.6,2.4c2.2,0,4.3-0.7,6.2-2
						c1.2-0.9,2.3-2.1,3.1-3.5c0.1-0.2,0.2-0.4,0.3-0.5c0,0,1-1.9,1-4.2L78.8,16c0-0.4,0-0.7-0.1-1v-0.1l0.1,0.1l0.1,0.1L78.8,16"/>
					<path id="path14_3_" class="st1" d="M75.9,9.4c0,0-8.7-1.6-12.7,5.9c0,0,0.7-5.2,6.9-7.6l-1.2-2.3c0,0,2.5-2.2,6.8-1.6
						L75.9,9.4z"/>
					<path id="path16_3_" class="st2" d="M65.2,13.4c0,0,3.4-4.5,11.3-3.3l-0.1-2.6c0,0,3.3-0.1,6,2.2l-3.3,5c0,0-2.2-2.6-6.9-2.7
						C70.3,11.8,67.9,12.1,65.2,13.4"/>
					<path id="path18_3_" class="st1" d="M67,15.1c0,0-0.8,0.1-0.7-0.2c0-0.1,0.1-0.2,0.2-0.1c0-0.1-0.2-0.3,0.2-0.4
						c0.1-0.1,0.2-0.3,0.3-0.4c0.1-0.1,0.1-0.3,0.4-0.1c0.3,0.1,0.6,0.4,0.7,0.4c0.2,0,0.3,0.1,0.3,0.1l-0.1,0.1
						c0,0,0.1,0.1-0.2,0.1c0,0.1,0.1,0.1,0.1,0.1c0.1,0.1,0,0.1,0,0.1c0,0,0.1,0.1-0.1,0.1c-0.2-0.1-0.2-0.1-0.2-0.1s-0.2,0-0.2,0.1
						s0.2,0.1,0,0.1c-0.1,0.1,0.1,0.1,0,0.1c-0.1,0.1-0.4,0.3-0.6,0.4c-0.2,0-0.2-0.1-0.2-0.1S67,15.2,67,15.1
						C67,15.2,67.1,15.1,67,15.1"/>
					<path id="path20_3_" class="st1" d="M67,15.9c-0.1,0-0.3-0.1-0.2-0.2c0.1-0.1,0.6-0.4,0.7-0.4s0.3,0.1,0.1,0.2
						C67.5,15.6,67,15.9,67,15.9"/>
					<path id="path22_3_" class="st1" d="M67.7,15.6c0-0.1,0.1-0.4,0.1-0.4s0.3-0.1,0.2,0.2C67.9,15.6,67.7,15.7,67.7,15.6"/>
					<path id="path24_3_" class="st1" d="M68.1,15c0,0,1.4-0.1,1.5,0s0.6,0.8,0.4,1.4c-0.1,0.6-0.3,0.8-1.2,0.9
						c0-0.2-0.1-0.8-0.2-0.9s-0.4-0.5-0.5-0.5c0,0.1-0.1,0.6-0.1,0.6s-0.4,0-0.5,0v-0.7c0,0,0.4-0.4,0.4-0.4
						c0.1,0.1,0.1,0.3,0.6,0.2C68.6,15.6,68.1,15.6,68.1,15"/>
					<path id="path26_3_" class="st1" d="M67.5,15.6c0,0-0.4,0.4-0.6,0.4c-0.1,0.1-0.1,0.5,0.4,0.5C67.5,16.3,67.5,15.6,67.5,15.6"
						/>
					<path id="path28_3_" class="st1" d="M66.5,16.2c-0.2,0-0.3,0-0.3-0.1c0-0.1,0.2-0.2,0.3-0.2c0.1,0.1,0.3,0.1,0.3,0.5
						c0.1,0.1,0.3,0.3,0.7,0.3s0.6,0,0.6,0.1v0.6c0,0-0.4,0-1.4-0.7c-0.1-0.1-0.2-0.2-0.2-0.4C66.6,16.2,66.5,16.2,66.5,16.2"/>
					<path id="path30_3_" class="st1" d="M66.2,16.2c-0.2,0-0.7,0.4-0.3,0.5l0.2-0.2c0,0-0.1,0.3,0.1,0.3s0.1-0.1,0.2-0.1
						c0.1,0.1,0.1,0.1,0.2,0.1s0.1-0.3,0-0.5C66.5,16.3,66.4,16.2,66.2,16.2"/>
					<path id="path32_3_" class="st1" d="M68.3,16.3v1.3c0,0,0.4-0.1,0.4-0.3C68.7,17.1,68.6,16.3,68.3,16.3"/>
					<path id="path34_3_" class="st1" d="M67.2,17.1c0,0,0.5,0.4,0.8,0.5c-0.1,0-0.3,0.4-0.3,0.3C67.6,17.9,67.3,17.4,67.2,17.1"/>
					<path id="polygon36_3_" class="st1" d="M64.8,17.6h0.7v0.3h-0.7L64.8,17.6z"/>
					<path id="polygon38_3_" class="st1" d="M72.2,17.5h-2.8l0.4,0.4h2.4V17.5z"/>
					<path id="path40_3_" class="st1" d="M68.8,17.5c0.1,0,0.4,0.2,0.3,0.3s-1,0.4-1,0.4c-0.1,0-0.1-0.3,0.1-0.3
						C68.2,17.8,68.7,17.6,68.8,17.5"/>
					<path id="path42_3_" class="st1" d="M67.8,18.1c-0.1,0-0.7,0.5-0.4,0.5s0.8,0.1,1,0.3c0.2,0,0.3-0.2,0.3-0.3
						c0.1,0,0.3,0.1,0.4,0.1s0.8-0.5,0.8-0.6c-0.2-0.1-0.4-0.3-0.6-0.3C69.2,17.7,68.3,18.3,67.8,18.1"/>
					<path id="path44_3_" class="st1" d="M67.5,18.7c0.1,0,0.8,0.3,0.9,0.3c0.2,0,0.2-0.2,0.3-0.2c0.1,0,0.2,0.1,0.3,0
						s0.5-0.4,0.6-0.5c0,0.1,0,0.4-0.7,0.7c-0.7,0.3-2.2,0.8-2.2,1c0.1,0,0.3,0,0.4-0.1c0.1,0,0.3,0.3,0.2,0.6s-0.3,0.9-0.3,1v1
						c0,0,0.2,0.5-0.1,0.5c-0.2,0-0.3,0-0.4,0c-0.1,0-0.3,0.1-0.3,0.1c-0.2,0-0.3-0.1-0.3-0.1s0.2,0,0.3-0.1c0.2,0,0.2-0.2,0.4-0.3
						c0-0.1-0.1-1.4-0.1-1.6s-0.1-0.8,0.1-1C66.7,19.5,67.3,18.7,67.5,18.7"/>
					<path id="path46_3_" class="st1" d="M68.5,19.4c0,0.1,0.4,1.2,0.7,1.2c0.2,0,2-0.4,2.4-0.3c0.1,0.1,0.3,0.4,0.3,0.5
						c0,0,0.1,0.4,0,0.4c0.1,0,0.2,0,0.3-0.1s0-0.6,0-0.7s0.3-0.5-0.1-0.5c-0.3,0-1.1,0-1.4,0c-0.3,0-0.9-0.2-1-0.1
						c-0.2,0.1-0.3,0.4-0.3,0.4c-0.1,0-0.1,0,0-0.3c0.1-0.2,0.3-0.8,0.3-1C69.3,19,68.5,19.4,68.5,19.4"/>
					<path id="path48_3_" class="st1" d="M67.4,17.7c0,0,0.1,0.1,0.1,0.2l-1.4-0.1c0,0-0.2-0.1-0.1-0.1L67.4,17.7z"/>
					<path id="path50_3_" class="st1" d="M65.8,17.6h1.4c0,0-0.1-0.1-0.2-0.3h-1.3c0,0-0.2,0-0.2,0.3C65.6,17.7,65.7,17.8,65.8,17.6
						"/>
					<path id="path52_3_" class="st1" d="M64.4,17.9h0.3c0,0,0.1,0,0-0.1s-0.3-0.2-0.2-0.4c-0.2,0-0.3,0-0.3,0.4h-0.2
						c0,0-0.1-0.3-0.4-0.3s-1.2,0.4-1.2,0.4s0.9,0.3,1.2,0.3s0.4-0.3,0.4-0.3h0.1c0,0,0.1,0.2,0.1,0.3v0.3c0,0-0.2,0-0.1,0.2
						c0,0.1,0.1,0.1,0.2,0.1s0.1,0,0.2,0c0.1,0,0-0.3-0.1-0.3v-0.2c0,0,0.1-0.1,0.1-0.1C64.5,17.9,64.4,18,64.4,17.9"/>
					<path id="path54_3_" class="st1" d="M66.2,19.2c0.1,0,0.2-0.2,0.2-0.2v-0.9c0-0.2-0.3-0.4-0.4-0.4c-0.1,0-0.2,0.1-0.2,0.1
						c-0.1,0-0.2,0-0.3-0.1c-0.3,0-0.4,0.4-0.4,0.4S65,18.9,65,19c0,0.1,0.1,0.2,0.2,0.3c-0.1,0.2-0.3,1.3,0.1,1.5V21h1v-0.2
						C66.5,20.5,66.3,19.5,66.2,19.2 M65,18.2c0,0,0.2-0.3,0.3-0.3c0.1,0.1,0.2,0.1,0.3,0.1c0.1,0,0.2-0.1,0.3-0.1
						c0.1,0,0.3,0.1,0.3,0.3v0.9c0,0-0.1,0.1-0.1,0.1h-0.2v-0.4h-0.7v0.4h-0.2c-0.1,0-0.1-0.1-0.1-0.2L65,18.2 M65.7,20.5h-0.2
						c-0.1,0-0.1,0-0.1-0.1c0,0,0.1-0.1,0.1-0.1h0.2c0.1,0,0.1,0,0.1,0.1S65.8,20.5,65.7,20.5 M66.1,20.6l-0.5-0.5l-0.4,0.5
						c-0.3-0.1-0.1-1,0-1.4h0.9C66.2,19.6,66.4,20.5,66.1,20.6"/>
					<path id="path56_3_" class="st1" d="M66,19.6c0.1-0.1-0.1-0.3-0.1-0.3h-0.6c-0.2,0-0.2,0.3-0.2,0.3l0.3,0.3
						C65.6,19.9,65.9,19.8,66,19.6"/>
					<path id="path58_3_" class="st1" d="M65.7,20l0.3,0.4c0,0-0.1-0.5-0.1-0.6C66,19.8,65.7,20,65.7,20"/>
					<path id="path60_3_" class="st1" d="M65.2,19.7c0,0.1-0.1,0.6-0.1,0.6l0.3-0.4C65.5,20,65.3,19.8,65.2,19.7"/>
					<path id="path62_3_" class="st1" d="M65.9,18.7L65.9,18.7L65.9,18.7C66,18.6,65.9,18.6,65.9,18.7l-0.6-0.1c-0.1,0-0.1,0-0.1,0
						v0h0.1H65.9z"/>
					<path id="path64_3_" class="st1" d="M65.1,21L65.1,21L65.1,21C65.1,21.1,65.1,21.1,65.1,21l1,0.1c0.1,0,0.1,0,0.1,0v0h-0.1
						H65.1z"/>
					<path id="path66_3_" class="st2" d="M61.8,17.5c0,0-3.9-8.6,5.2-14.1l2.2,4c0,0-1.5,0.5-3.1,1.9C64.4,10.7,62.6,13.2,61.8,17.5
						"/>
				</g>
			</g>
			<g id="g116_3_">
				<path id="path70_3_" class="st3" d="M86.8,27.7v0.6l0.6-0.2l0.2,0.1v0.2c0,0.2-0.1,0.4-0.2,0.5c-0.1,0.1-0.3,0.2-0.5,0.2
					c-0.3,0-0.4-0.1-0.6-0.3c-0.2-0.1-0.3-0.4-0.3-0.6l0.2-0.1c0.2,0.5,0.4,0.8,0.8,0.8c0.2,0,0.3,0,0.3-0.1s0.2-0.2,0.2-0.4
					c0,0,0-0.1-0.1-0.1l-0.5,0.2l-0.2-0.2v-0.7h-0.8v-0.1h1.9v0.1L86.8,27.7L86.8,27.7z"/>
				<path id="polygon72_3_" class="st3" d="M87.8,29.2v-1.5h-0.3v-0.1h0.7v0.1H88v1.5H87.8z"/>
				<path id="path74_3_" class="st3" d="M89.3,27.7v0.1c0.2,0,0.3,0,0.4,0.1c0.2,0.1,0.3,0.2,0.3,0.4c0,0.1-0.1,0.2-0.2,0.3
					c-0.1,0-0.2,0.1-0.3,0.1h-0.1v-0.2h0.1c0.2,0,0.2,0,0.2-0.2c0-0.1-0.2-0.3-0.5-0.3v1.2h-0.2l-0.3-0.5c-0.2-0.1-0.3-0.2-0.5-0.2
					l-0.1-0.3c0.1-0.1,0.4-0.3,0.8-0.5v-0.1h-0.9v-0.1h1.9v0.1L89.3,27.7L89.3,27.7z M89.1,28c-0.1,0-0.2,0.1-0.3,0.1l-0.3,0.3
					c0.1,0,0.2,0.1,0.3,0.3c0.1,0,0.2,0.1,0.3,0.3V28z"/>
				<path id="path76_3_" class="st3" d="M92.6,27.3C92.3,27.1,92,27,91.8,27c-0.2,0-0.3,0-0.5,0.1s-0.2,0.3-0.2,0.5h0.2v0.1h-0.2
					v1.4h-0.2v-1.4h-0.2v-0.1h0.2c0-0.3,0.1-0.5,0.3-0.6s0.3-0.2,0.6-0.2c0.2,0,0.3,0,0.5,0.1c0.1,0,0.3,0.1,0.4,0.3L92.6,27.3z"/>
				<path id="path78_3_" class="st3" d="M92.8,27.7v1.5h-0.2c-0.1-0.1-0.3-0.3-0.5-0.5c-0.3-0.1-0.4-0.2-0.7-0.2l-0.1-0.3
					c0.1-0.1,0.3-0.2,0.6-0.3c0.1,0,0.3-0.1,0.7-0.3v-0.1h-1.3v-0.1H93v0.1L92.8,27.7L92.8,27.7z M92.6,28c-0.2,0-0.5,0.2-0.9,0.4
					c0.3,0.1,0.7,0.3,0.9,0.5V28z"/>
				<path id="path80_3_" class="st3" d="M92.9,27.6h1.8v0.1h-1.8V27.6z M93.9,29.2c-0.2,0-0.4-0.1-0.6-0.3c-0.2-0.1-0.3-0.4-0.3-0.6
					l0.1-0.1c0.1,0.2,0.2,0.4,0.3,0.5c0.2,0.2,0.3,0.3,0.5,0.3c0.2,0,0.3,0,0.3-0.1s0.2-0.2,0.2-0.4c-0.2,0.1-0.3,0.1-0.4,0.1
					c-0.1,0-0.3,0-0.3-0.1c-0.1-0.1-0.2-0.2-0.2-0.3c0-0.1,0.1-0.2,0.1-0.3c0.1,0,0.2-0.1,0.3-0.1c0.1,0,0.2,0,0.2,0
					c0.1,0,0.1,0.1,0.1,0.2c0,0-0.1,0.1-0.1,0.2L94,28.3c0.1,0,0.1,0,0.1-0.1c0,0-0.1-0.1-0.1-0.1c-0.1,0-0.1,0-0.2,0
					s-0.1,0.1-0.1,0.1c0,0.1,0.1,0.1,0.1,0.2c0.1,0,0.1,0.1,0.2,0.1c0.2,0,0.3,0,0.4-0.2l0.2,0.2c0,0.2-0.1,0.4-0.2,0.5
					C94.3,29.1,94.2,29.2,93.9,29.2"/>
				<path id="polygon82_3_" class="st3" d="M94.9,29.2v-1.5h-0.2v-0.1h0.7v0.1h-0.3v1.5H94.9z"/>
				<path id="path84_3_" class="st3" d="M96.1,29.3c-0.2,0-0.3,0-0.4-0.1c-0.2-0.1-0.3-0.4-0.3-0.6c0-0.1,0.1-0.3,0.2-0.5
					c0.1-0.1,0.2-0.3,0.3-0.4h-0.6v-0.1h0.9v0.1c-0.2,0-0.3,0.1-0.4,0.4c-0.2,0.1-0.2,0.4-0.2,0.5c0,0.4,0.2,0.6,0.5,0.6
					c0.1,0,0.1,0,0.2,0v0.2L96.1,29.3"/>
				<path id="path86_3_" class="st3" d="M97.3,27.7v1.4h-0.2v-1c0,0-0.1-0.1-0.1-0.1c-0.1-0.2-0.3-0.3-0.4-0.3c-0.1,0-0.2,0-0.2,0.1
					l-0.1,0.1c0.1,0,0.2,0,0.2,0c0.1,0,0.2,0,0.3,0c0.1,0,0.1,0.1,0.1,0.2s-0.1,0.2-0.2,0.3c-0.1,0.1-0.2,0.2-0.3,0.2l-0.1-0.1
					c0.1,0,0.2-0.1,0.3-0.1c0.1-0.1,0.2-0.1,0.2-0.3c0,0-0.1-0.1-0.2-0.1s-0.2,0-0.2,0h-0.1l-0.1-0.2l0.2-0.2c0.1,0,0.2-0.1,0.3-0.1
					c0.2,0,0.4,0.1,0.6,0.4v-0.4h0.3v0.1h-0.2C97.3,27.6,97.3,27.7,97.3,27.7z"/>
				<path id="path88_3_" class="st3" d="M99,27.7v1.5h-0.2c-0.1-0.1-0.3-0.3-0.5-0.4c-0.3-0.1-0.4-0.2-0.7-0.2l-0.1-0.3
					c0.3-0.2,0.7-0.4,1.2-0.5v-0.1h-1.3v-0.1h1.7v0.1L99,27.7L99,27.7z M98.8,28c-0.3,0.1-0.6,0.3-0.8,0.4c0.3,0.1,0.6,0.3,0.8,0.5
					V28z M98.3,29.2c-0.1,0-0.2-0.1-0.3-0.2l0.1-0.1c0.1,0,0.2,0.1,0.3,0.2L98.3,29.2z"/>
				<path id="path90_3_" class="st3" d="M101.7,27.3c-0.3-0.2-0.6-0.3-0.8-0.3c-0.2,0-0.3,0-0.5,0.1s-0.2,0.3-0.2,0.5h0.2v0.1h-0.2
					v1.4H100v-1.4h-0.2v-0.1h0.2c0-0.3,0.1-0.5,0.3-0.6s0.3-0.2,0.6-0.2c0.2,0,0.3,0,0.5,0.1c0.1,0,0.3,0.1,0.4,0.3L101.7,27.3z"/>
				<path id="path92_3_" class="st3" d="M101.4,27.7v0.6l0.6-0.2l0.2,0.1v0.2c0,0.2-0.1,0.4-0.2,0.5c-0.1,0.1-0.3,0.2-0.5,0.2
					c-0.3,0-0.4-0.1-0.6-0.3c-0.2-0.1-0.3-0.4-0.3-0.6l0.2-0.1c0.2,0.5,0.4,0.8,0.8,0.8c0.2,0,0.3,0,0.3-0.1s0.2-0.2,0.2-0.4
					c0,0,0-0.1-0.1-0.1l-0.5,0.2l-0.2-0.1v-0.7h-0.8v-0.1h1.9v0.1L101.4,27.7L101.4,27.7L101.4,27.7z"/>
				<path id="path94_3_" class="st3" d="M104.1,27.3c-0.3-0.2-0.6-0.3-0.8-0.3s-0.3,0-0.5,0.1s-0.2,0.3-0.2,0.5h0.2v0.1h-0.2v1.4
					h-0.2v-1.4h-0.2v-0.1h0.2c0-0.3,0.1-0.5,0.3-0.6s0.3-0.2,0.6-0.2c0.2,0,0.3,0,0.5,0.1c0.1,0,0.3,0.1,0.4,0.3L104.1,27.3z"/>
				<path id="path96_3_" class="st3" d="M103.9,27.7c0.1,0.2,0.2,0.3,0.4,0.3h0.1l0.2,0.2c-0.1,0.3-0.2,0.4-0.2,0.5
					c0,0.3,0.1,0.4,0.1,0.5l-0.2,0c-0.1-0.1-0.2-0.3-0.2-0.5c0-0.1,0-0.2,0.1-0.3c0,0,0.1-0.1,0.1-0.3c-0.2,0-0.3,0-0.4-0.1
					c-0.2-0.1-0.2-0.2-0.3-0.4c-0.2,0.1-0.3,0.3-0.3,0.5c0,0.1,0.1,0.1,0.2,0.1c0.1,0,0.1,0,0.2,0s0.1,0,0.1-0.1h0.2
					c0.1,0,0.1,0.1,0.1,0.3c0,0.4-0.2,0.5-0.6,0.5c-0.1,0-0.2,0-0.3,0c-0.1,0-0.1,0-0.2-0.1c-0.1-0.1-0.2-0.3-0.3-0.5l0.1-0.1
					c0.1,0.1,0.2,0.3,0.3,0.5l0.2,0c0.1,0,0.1,0,0.2,0c0.1,0,0.2,0,0.3-0.1c0.1,0,0.1-0.1,0.1-0.3c0,0,0-0.1-0.1-0.1
					c-0.1,0.1-0.2,0.1-0.3,0.1c-0.1,0-0.2,0-0.3-0.1c-0.1,0-0.1-0.1-0.1-0.3c0-0.1,0.1-0.3,0.2-0.5h-0.8v-0.1h2v0.1L103.9,27.7
					L103.9,27.7L103.9,27.7z"/>
				<path id="path98_3_" class="st3" d="M105,27.7V29h0.1c0.2,0,0.3,0,0.5-0.1s0.3-0.3,0.3-0.4s-0.1-0.3-0.3-0.3
					c-0.1,0-0.2,0-0.3,0.1l-0.1-0.1c0.1-0.1,0.3-0.1,0.4-0.1c0.1,0,0.2,0,0.3,0.1c0.1,0.1,0.1,0.2,0.1,0.3c0,0.1-0.1,0.3-0.3,0.5
					c-0.2,0.1-0.3,0.2-0.4,0.2c-0.2,0-0.3,0-0.6,0v-1.5h-0.2v-0.1h1.1v0c0-0.1-0.1-0.2-0.2-0.3s-0.2-0.1-0.3-0.1
					c-0.2,0-0.3,0-0.6,0.2l-0.1-0.1c0.3-0.1,0.4-0.2,0.7-0.2c0.2,0,0.3,0,0.4,0.1c0.1,0.1,0.2,0.3,0.2,0.4h0.2v0.1
					C106.3,27.7,105,27.7,105,27.7z"/>
				<path id="polygon100_3_" class="st3" d="M106.4,29.2v-1.5h-0.3v-0.1h0.7v0.1h-0.3v1.5H106.4z"/>
				<path id="path102_3_" class="st3" d="M108.5,27.7v1.5h-0.2v-0.3c0-0.4-0.1-0.5-0.3-0.5c-0.1,0-0.1,0-0.2,0.1
					c-0.1,0-0.1,0.1-0.1,0.2h-0.2c0,0-0.1-0.1-0.1-0.2c-0.1,0-0.1-0.1-0.2-0.1s-0.2,0-0.2,0.1c-0.1,0-0.1,0.1-0.1,0.2
					c0,0.2,0.1,0.3,0.3,0.3h0.1l-0.1,0.2h-0.1c-0.2,0-0.3,0-0.3-0.1s-0.2-0.2-0.2-0.4s0.1-0.3,0.2-0.4s0.2-0.1,0.3-0.1
					s0.3,0.1,0.3,0.3c0.1-0.1,0.3-0.3,0.3-0.3s0.2,0.1,0.3,0.3v-0.6h-1.6v-0.1h1.9v0.1L108.5,27.7L108.5,27.7z"/>
				<path id="path104_3_" class="st3" d="M109.7,28.6c0,0.1,0,0.2,0.1,0.3c0.1,0.1,0.2,0.2,0.3,0.2c0.1,0,0.1,0,0.2,0l0.1,0.1
					c-0.1,0-0.2,0-0.2,0c-0.3,0-0.5-0.3-0.5-0.8c0-0.3,0.2-0.6,0.6-0.9h0.3v0.1c-0.2,0-0.3,0.1-0.4,0.3
					C109.7,28.2,109.7,28.4,109.7,28.6"/>
				<path id="path106_3_" class="st3" d="M112,27.7v1.5h-0.2v-0.3c0-0.4-0.1-0.5-0.3-0.5c-0.1,0-0.1,0-0.2,0.1
					c-0.1,0-0.1,0.1-0.1,0.2h-0.2c0,0-0.1-0.1-0.1-0.2c-0.1,0-0.1-0.1-0.2-0.1s-0.2,0-0.2,0.1c-0.1,0-0.1,0.1-0.1,0.2
					c0,0.2,0.1,0.3,0.3,0.3h0.1l-0.1,0.2h-0.1c-0.2,0-0.3,0-0.3-0.1s-0.2-0.2-0.2-0.4s0.1-0.3,0.2-0.4s0.2-0.1,0.3-0.1
					s0.3,0.1,0.3,0.3c0.1-0.1,0.3-0.3,0.3-0.3s0.2,0.1,0.3,0.3v-0.6h-1.6v-0.1h1.9v0.1L112,27.7L112,27.7z"/>
				<path id="path108_3_" class="st3" d="M113.6,27.7v1.5h-0.2v-0.1c0-0.1-0.1-0.3-0.3-0.5c-0.2-0.1-0.3-0.3-0.4-0.3
					c-0.1,0-0.2,0-0.2,0c-0.1,0-0.1,0.1-0.1,0.1s0,0.1,0.1,0.1c0.1,0,0.1,0,0.2,0c0.1,0,0.1,0,0.2,0l0.1,0.2c0,0.1-0.1,0.1-0.2,0.1
					s-0.2,0-0.3-0.1c-0.1-0.1-0.1-0.2-0.1-0.3c0-0.1,0.1-0.3,0.1-0.3c0.1-0.1,0.2-0.1,0.3-0.1c0.3,0,0.6,0.1,0.8,0.5v-1H112v-0.1
					h1.7v0.1L113.6,27.7L113.6,27.7L113.6,27.7z"/>
				<path id="path110_3_" class="st3" d="M114.5,29.3c-0.2,0-0.3,0-0.4-0.1c-0.2-0.1-0.3-0.4-0.3-0.6c0-0.1,0.1-0.3,0.2-0.5
					c0.1-0.1,0.2-0.3,0.3-0.4h-0.6v-0.1h0.9v0.1c-0.2,0-0.3,0.1-0.4,0.4c-0.2,0.1-0.2,0.4-0.2,0.5c0,0.4,0.2,0.6,0.5,0.6
					c0.1,0,0.1,0,0.2,0v0.2L114.5,29.3"/>
				<path id="path112_3_" class="st3" d="M114.7,27.7v0.6c0.3-0.2,0.6-0.4,0.8-0.4l0.2,0.3c-0.1,0.3-0.2,0.4-0.2,0.5
					c0,0.1,0.1,0.3,0.1,0.4l-0.2,0c-0.1-0.2-0.1-0.3-0.1-0.4c0-0.2,0-0.4,0.1-0.6c-0.2,0.1-0.4,0.3-0.8,0.5l-0.2-0.1v-0.8h-0.2v-0.1
					h1.4v0.1L114.7,27.7L114.7,27.7z"/>
				<path id="path114_3_" class="st3" d="M117.2,27.7v1.5H117v-0.1c0-0.1-0.1-0.3-0.3-0.5c-0.2-0.1-0.3-0.3-0.4-0.3
					c-0.1,0-0.2,0-0.2,0c-0.1,0-0.1,0.1-0.1,0.1s0,0.1,0.1,0.1c0.1,0,0.1,0,0.2,0c0.1,0,0.1,0,0.2,0l0.1,0.2
					c-0.1,0.1-0.2,0.1-0.3,0.1s-0.2,0-0.3-0.1c-0.1-0.1-0.1-0.2-0.1-0.3c0-0.1,0.1-0.3,0.1-0.3c0.1-0.1,0.2-0.1,0.3-0.1
					c0.3,0,0.6,0.1,0.8,0.5v-1h-1.3v-0.1h1.7v0.1L117.2,27.7C117.2,27.6,117.2,27.7,117.2,27.7z"/>
			</g>
		</g>
		<g>
			<g>
				<path class="st4" d="M169.1,21.1c1.3,0.4,2.8,1.2,3.8,3.2V12.8h-8.3c0.8,0.6,1.8,1.4,2.6,2.6C168.4,17.1,169.1,19,169.1,21.1z"
					/>
				<path d="M142,26.9c-0.4-0.6-1.1-1.1-1.9-1.5c-0.3-0.1-0.5-0.2-0.8-0.2c-0.4,0-0.8,0.1-1.1,0.4c-0.7,0.5-1.1,1.4-1,2.1
					c0.1,0.6,0.5,1.1,1.1,1.4c0.3,0.1,0.6,0.2,0.9,0.2c1.2,0,2-0.9,2.3-1.5c0,0.1,0,0.1,0.1,0.2c0,0.2,0.2,0.4,0.4,0.4
					s0.4-0.2,0.4-0.4C142.5,27.8,142.4,27.4,142,26.9z M138.6,28.4c-0.4-0.2-0.6-0.5-0.7-0.8c-0.1-0.5,0.2-1.1,0.7-1.5
					c0.1-0.1,0.4-0.3,0.7-0.3c0.1,0,0.3,0,0.5,0.1c0.7,0.3,1.1,0.7,1.4,1C141,27.5,140.1,29,138.6,28.4z"/>
				<g>
					<path class="st1" d="M138.6,28.4c-0.4-0.2-0.6-0.5-0.7-0.8c-0.1-0.5,0.2-1.1,0.7-1.5c0.1-0.1,0.4-0.3,0.7-0.3
						c0.1,0,0.3,0,0.5,0.1c0.7,0.3,1.1,0.7,1.4,1C141,27.5,140.1,29,138.6,28.4z"/>
				</g>
				<path d="M187.6,26.9c-0.4-0.6-1.1-1.1-1.9-1.5c-0.3-0.1-0.5-0.2-0.8-0.2c-0.4,0-0.8,0.1-1.1,0.4c-0.7,0.5-1.1,1.4-1,2.1
					c0.1,0.6,0.5,1.1,1.1,1.4c0.3,0.1,0.6,0.2,0.9,0.2c1.2,0,2-0.9,2.3-1.5c0,0.1,0.1,0.1,0.1,0.2c0,0.2,0.2,0.4,0.4,0.4
					s0.4-0.2,0.4-0.4C188.1,27.8,188,27.4,187.6,26.9z M184.2,28.4c-0.4-0.2-0.6-0.5-0.7-0.8c-0.1-0.5,0.2-1.1,0.7-1.5
					c0.1-0.1,0.4-0.3,0.7-0.3c0.1,0,0.3,0,0.5,0.1c0.7,0.3,1.1,0.7,1.4,1C186.6,27.5,185.7,29,184.2,28.4z"/>
				<g>
					<path class="st5" d="M184.2,28.4c-0.4-0.2-0.6-0.5-0.7-0.8c-0.1-0.5,0.2-1.1,0.7-1.5c0.1-0.1,0.4-0.3,0.7-0.3
						c0.1,0,0.3,0,0.5,0.1c0.7,0.3,1.1,0.7,1.4,1C186.6,27.5,185.7,29,184.2,28.4z"/>
				</g>
				<path class="st5" d="M155.4,13.7l-5,4.9c2.4-1.1,4.3-1.7,5-1.9V13.7z"/>
				<path class="st6" d="M145,13.7l-5,4.9c2.4-1.1,4.3-1.7,5-1.9V13.7z"/>
				<g>
					<path class="st6" d="M167.2,24.2c-0.4,0.2-0.9,0.2-1.4-0.3c-0.2-0.2-0.4-1,0-1.7c0.3-0.4,0.8-0.6,1.6-0.6c0.1,0,0.4,0,0.9,0.1
						C168.3,21.8,168.1,23.6,167.2,24.2z"/>
				</g>
				<path class="st6" d="M155.4,17.6c-1.1,0.3-3.9,1.1-6.9,3l6.9,6.1V17.6z"/>
				<path class="st7" d="M199.3,28.3c0.2,0,0.4,0,0.4,0.1c0.1,0.1,0.1,0.2,0.1,0.4c0,0.2,0,0.3-0.1,0.4s-0.2,0.1-0.4,0.1
					c-0.2,0-0.4,0-0.4-0.1c-0.1-0.1-0.1-0.2-0.1-0.4c0-0.2,0-0.3,0.1-0.4C199,28.4,199.1,28.3,199.3,28.3z"/>
				<path class="st7" d="M199.8,20.4c-0.1-0.3-0.3-0.5-0.5-0.7c-0.2-0.2-0.4-0.3-0.7-0.4s-0.6-0.1-0.9-0.1c-0.3,0-0.6,0-0.9,0.1
					c-0.3,0.1-0.5,0.2-0.7,0.4s-0.3,0.4-0.4,0.6s-0.1,0.5-0.1,0.9c0,0.4,0.1,0.6,0.2,0.9s0.3,0.5,0.5,0.7c0.2,0.2,0.4,0.3,0.7,0.4
					s0.6,0.1,0.9,0.1c0.4,0,0.6,0,0.9-0.1c0.3-0.1,0.5-0.2,0.7-0.4c0.2-0.2,0.3-0.4,0.4-0.6s0.1-0.5,0.1-0.9
					C199.9,21,199.9,20.7,199.8,20.4z M199.2,21.9c-0.1,0.2-0.2,0.3-0.4,0.4c-0.1,0.1-0.3,0.2-0.5,0.2c-0.2,0-0.4,0.1-0.6,0.1
					c-0.2,0-0.4,0-0.6-0.1s-0.4-0.1-0.5-0.2c-0.1-0.1-0.3-0.2-0.3-0.4s-0.1-0.4-0.1-0.6c0-0.2,0-0.4,0.1-0.6
					c0.1-0.2,0.2-0.3,0.4-0.4c0.1-0.1,0.3-0.2,0.5-0.2s0.4-0.1,0.6-0.1c0.2,0,0.4,0,0.6,0.1s0.4,0.1,0.5,0.2
					c0.1,0.1,0.3,0.2,0.3,0.4s0.1,0.4,0.1,0.6C199.3,21.5,199.3,21.8,199.2,21.9z"/>
				<path class="st7" d="M199.7,12C199.8,12,199.8,12.1,199.7,12C199.8,12.1,199.8,12.1,199.7,12c0.1,0.1,0.1,0.2,0.1,0.2
					c0,0.1,0,0.1,0,0.2c0,0.1,0,0.1,0,0.2c0,0.1,0,0.1,0,0.1c0,0,0,0.1,0,0.1c0,0,0,0-0.1,0h-2.5c-0.2,0-0.3,0-0.5,0
					c-0.1,0-0.3,0.1-0.4,0.1c-0.1,0.1-0.2,0.1-0.2,0.3c-0.1,0.1-0.1,0.2-0.1,0.4c0,0.2,0.1,0.4,0.2,0.5c0.1,0.2,0.3,0.4,0.6,0.6h2.9
					c0,0,0,0,0.1,0s0,0,0,0.1c0,0,0,0.1,0,0.1s0,0.1,0,0.2c0,0.1,0,0.1,0,0.2c0,0.1,0,0.1,0,0.1s0,0.1,0,0.1c0,0,0,0-0.1,0h-2.5
					c-0.2,0-0.3,0-0.5,0.1c-0.1,0-0.3,0.1-0.4,0.1c-0.1,0.1-0.2,0.1-0.2,0.3c-0.1,0.1-0.1,0.2-0.1,0.4c0,0.2,0.1,0.4,0.2,0.5
					c0.1,0.2,0.3,0.4,0.6,0.6h2.9c0,0,0,0,0.1,0s0,0,0,0.1c0,0,0,0.1,0,0.1c0,0,0,0.1,0,0.2c0,0.1,0,0.1,0,0.2c0,0,0,0.1,0,0.1
					s0,0,0,0.1c0,0,0,0-0.1,0h-4.1c0,0,0,0-0.1,0c0,0,0,0-0.1,0c0,0,0-0.1,0-0.1s0-0.1,0-0.2s0-0.1,0-0.2c0,0,0-0.1,0-0.1
					c0,0,0,0,0.1,0c0,0,0,0,0.1,0h0.5c-0.3-0.2-0.4-0.5-0.6-0.7c-0.1-0.2-0.2-0.4-0.2-0.7c0-0.2,0-0.3,0.1-0.5s0.1-0.3,0.2-0.4
					c0.1-0.1,0.2-0.2,0.3-0.3c0.1-0.1,0.2-0.1,0.3-0.2c-0.1-0.1-0.3-0.3-0.4-0.4c-0.1-0.1-0.2-0.2-0.3-0.4c-0.1-0.1-0.1-0.2-0.1-0.3
					c0-0.1,0-0.2,0-0.3c0-0.3,0.1-0.5,0.1-0.7s0.2-0.3,0.4-0.4c0.1-0.1,0.3-0.2,0.5-0.2c0.2-0.1,0.4-0.1,0.7-0.1
					C197.1,12,199.7,12,199.7,12z"/>
				<path class="st7" d="M199.1,24c0.1,0,0.1,0,0.1,0c0,0,0.1,0,0.1,0c0,0,0,0,0.1,0s0.1,0,0.1,0.1c0,0,0.1,0.1,0.1,0.2
					s0.1,0.2,0.1,0.3c0,0.1,0.1,0.2,0.1,0.4c0,0.1,0,0.3,0,0.4c0,0.3-0.1,0.6-0.1,0.8c-0.1,0.2-0.2,0.4-0.4,0.6
					c-0.2,0.1-0.4,0.3-0.7,0.4s-0.6,0.1-0.9,0.1c-0.4,0-0.8,0-1-0.1s-0.5-0.2-0.7-0.4c-0.2-0.2-0.3-0.4-0.4-0.6
					c-0.1-0.2-0.1-0.5-0.1-0.8c0-0.1,0-0.3,0-0.4c0-0.1,0.1-0.2,0.1-0.3c0-0.1,0.1-0.2,0.1-0.3c0.1-0.1,0.1-0.1,0.1-0.2
					c0,0,0.1-0.1,0.1-0.1c0,0,0.1,0,0.1,0s0.1,0,0.1,0c0,0,0.1,0,0.1,0c0.1,0,0.2,0,0.3,0c0,0,0.1,0.1,0.1,0.1c0,0,0,0.1-0.1,0.2
					s-0.1,0.1-0.2,0.2s-0.1,0.2-0.2,0.3s-0.1,0.3-0.1,0.5c0,0.4,0.1,0.6,0.4,0.8c0.3,0.2,0.7,0.3,1.2,0.3c0.3,0,0.5,0,0.7-0.1
					c0.2,0,0.4-0.1,0.5-0.2c0.1-0.1,0.2-0.2,0.3-0.4c0.1-0.1,0.1-0.3,0.1-0.5c0-0.2,0-0.3-0.1-0.5s-0.1-0.2-0.2-0.3
					c-0.1-0.1-0.1-0.2-0.2-0.2c-0.1-0.1-0.1-0.1-0.1-0.1c0,0,0,0,0,0c0,0,0,0,0.1,0s0.1,0,0.1,0C199,24,199,24,199.1,24z"/>
				<path class="st2" d="M145,17.6c-1.1,0.3-3.9,1.1-6.9,3l6.9,6.1V17.6z"/>
				<path d="M193.9,12h-1.1h-10.7h-0.4h-0.6v-0.6c0.2-0.6,2-4.5,5.1-5c0.2,0,0.5-0.1,0.7-0.1c2,0,4.1,1.3,6.4,4
					c0.1,0.1,0.2,0.1,0.3,0.1c0.1,0,0.2,0,0.3-0.1c0.2-0.1,0.2-0.4,0-0.6c-2.4-2.8-4.8-4.3-7-4.3c-0.3,0-0.6,0-0.8,0.1
					c-0.9,0.2-1.7,0.5-2.5,1.1c-0.6,0.5-1.2,1.1-1.8,1.9c-0.9,1.3-1.4,2.5-1.5,2.6c0,0,0,0.1,0,0.1V12h-27.1h-6.9H142h-2.7h-2.9
					c-0.2,0-0.4,0.2-0.4,0.4c0,0.2,0.2,0.4,0.4,0.4h2.9h2.7h2.8l-7.6,7.4c0,0-0.1,0.1-0.1,0.1v0l0,0c0,0,0,0,0,0.1v0v0c0,0,0,0,0,0
					v0c0,0,0,0,0,0s0,0,0,0v0c0,0,0,0,0,0l0,0c0,0,0,0,0,0c0,0,0,0,0,0c0,0,0,0,0,0c0,0,0,0,0,0c0,0,0,0,0,0l0,0l0,0l0,0
					c0,0,0,0,0,0c0,0,0,0,0,0l7.8,7v1.1c0,0.2,0.2,0.4,0.4,0.4s0.4-0.2,0.4-0.4v-16h0.6h6.3h2.4l-7.6,7.4c0,0-0.1,0.1-0.1,0.1v0v0
					c0,0,0,0,0,0.1v0v0c0,0,0,0,0,0v0c0,0,0,0,0,0s0,0,0,0v0c0,0,0,0,0,0l0,0c0,0,0,0,0,0c0,0,0,0,0,0c0,0,0,0,0,0c0,0,0,0,0,0
					c0,0,0,0,0,0l0,0l0,0l0,0c0,0,0,0,0,0c0,0,0,0,0,0l7.8,7v1.1c0,0.2,0.2,0.4,0.4,0.4s0.4-0.2,0.4-0.4V17.4c0.3,0,0.7-0.1,1.2-0.1
					c1.2,0,2.8,0.2,3.7,1.1c0.4,0.4,0.6,0.9,0.7,1.5c-0.3-0.3-0.7-0.5-1.1-0.7c-0.3-0.1-0.5-0.2-0.8-0.2c-0.4,0-0.8,0.1-1.1,0.4
					c-0.7,0.5-1.1,1.4-1,2.1c0.1,0.6,0.5,1.1,1.1,1.4c0.3,0.1,0.6,0.2,0.9,0.2c1.1,0,2-0.9,2.4-1.5c0,0.1,0.1,0.2,0.1,0.2
					c0,0.2,0.2,0.4,0.4,0.4s0.4-0.2,0.4-0.4c0-0.2-0.1-0.5-0.4-1c0,0,0,0,0-0.1c0.1-1.2-0.2-2.2-0.9-2.9c-1.1-1.1-2.9-1.3-4.3-1.3
					c-0.5,0-0.9,0-1.2,0.1v-3.8h6.9c0.3,0.2,1.6,0.8,2.8,2.1c1.6,1.7,2.4,3.7,2.4,5.9c-0.3,0-0.6-0.1-0.7-0.1c0,0-0.1,0-0.1,0
					c-1.1,0-1.8,0.4-2.3,1c-0.6,1-0.4,2.5,0.5,3c0.7,0.4,1.6,0.2,1.9,0c1.1-0.6,1.4-2.3,1.5-3c1.6,0.5,3.5,1.9,3.8,5.7v1.3
					c0,0.2,0.2,0.4,0.4,0.4s0.4-0.2,0.4-0.4v-16h2.8v16c0,0.2,0.2,0.4,0.4,0.4s0.4-0.2,0.4-0.4v-16h3.1v16c0,0.2,0.2,0.4,0.4,0.4
					s0.4-0.2,0.4-0.4v-16h0.6h0.4h8.5l-7.6,7.4c0,0-0.1,0.1-0.1,0.1l0,0v0c0,0,0,0,0,0.1v0v0c0,0,0,0,0,0v0c0,0,0,0,0,0s0,0,0,0v0
					c0,0,0,0,0,0l0,0c0,0,0,0,0,0c0,0,0,0,0,0c0,0,0,0,0,0s0,0,0,0c0,0,0,0,0,0l0,0l0,0l0,0c0,0,0,0,0,0c0,0,0,0,0,0l7.8,7v1.1
					c0,0.2,0.2,0.4,0.4,0.4s0.4-0.2,0.4-0.4v-16h1.2h1.1h1.1c0-0.1,0.1-0.2,0.1-0.3c0.1-0.2,0.2-0.4,0.4-0.5L193.9,12L193.9,12z
					 M145.1,26.7l-6.9-6.1c3-1.8,5.7-2.7,6.9-3V26.7z M145.1,16.8c-0.7,0.2-2.7,0.7-5,1.9l5-4.9V16.8z M155.4,26.7l-6.9-6.1
					c3-1.8,5.7-2.7,6.9-3V26.7z M155.4,16.8c-0.7,0.2-2.7,0.7-5,1.9l5-4.9V16.8z M159.1,22.2c-0.4-0.2-0.6-0.4-0.7-0.8
					c-0.1-0.5,0.2-1.1,0.7-1.4c0.1-0.1,0.4-0.2,0.7-0.2c0.1,0,0.3,0,0.5,0.1c0.6,0.3,1,0.6,1.3,1C161.3,21.5,160.4,22.8,159.1,22.2z
					 M167.2,24.2c-0.4,0.2-0.9,0.2-1.4-0.3c-0.2-0.2-0.4-1,0-1.7c0.3-0.4,0.8-0.6,1.6-0.6c0.1,0,0.4,0,0.9,0.1
					C168.3,21.8,168.1,23.6,167.2,24.2z M172.8,24.3c-0.9-2-2.5-2.9-3.8-3.2c0-2.1-0.6-4-1.9-5.6c-0.9-1.2-1.8-2-2.6-2.6h8.3V24.3z
					 M190.8,26.7l-6.9-6.1c3-1.8,5.7-2.7,6.9-3V26.7z M190.8,16.8c-0.7,0.2-2.7,0.7-5,1.9l5-4.9V16.8z"/>
				<path class="st8" d="M190.8,17.6c-1.1,0.3-3.9,1.1-6.9,3l6.9,6.1V17.6z"/>
				<path class="st6" d="M159.1,22.2c-0.4-0.2-0.6-0.4-0.7-0.8c-0.1-0.5,0.2-1.1,0.7-1.4c0.1-0.1,0.4-0.2,0.7-0.2
					c0.1,0,0.3,0,0.5,0.1c0.6,0.3,1,0.6,1.3,1C161.3,21.5,160.4,22.8,159.1,22.2z"/>
				<path class="st6" d="M190.8,13.7l-5,4.9c2.4-1.1,4.3-1.7,5-1.9V13.7z"/>
			</g>
			<g>
				<g>
					<path d="M196.5,10.4c-0.6,0-1.1-0.5-1.1-1.1s0.5-1.1,1.1-1.1c0.6,0,1.1,0.5,1.1,1.1C197.7,9.9,197.1,10.4,196.5,10.4z
						 M196.5,8.2c-0.6,0-1.1,0.5-1.1,1.1s0.5,1.1,1.1,1.1c0.6,0,1.1-0.5,1.1-1.1C197.6,8.7,197.1,8.2,196.5,8.2z"/>
				</g>
				<g>
					<g>
						<path d="M196.1,8.6c0.1,0,0.2,0,0.4,0c0.2,0,0.3,0,0.4,0.1c0.1,0.1,0.1,0.2,0.1,0.3c0,0.2-0.1,0.3-0.3,0.4v0
							c0.1,0,0.2,0.1,0.2,0.3C197,9.8,197,10,197,10h-0.2c0,0-0.1-0.2-0.1-0.4c0-0.2-0.1-0.3-0.3-0.3h-0.2V10h-0.2L196.1,8.6
							L196.1,8.6z M196.3,9.2h0.2c0.2,0,0.3-0.1,0.3-0.3c0-0.2-0.1-0.3-0.3-0.3c-0.1,0-0.2,0-0.2,0L196.3,9.2L196.3,9.2z"/>
					</g>
				</g>
			</g>
		</g>
		
			<linearGradient id="SVGID_1_" gradientUnits="userSpaceOnUse" x1="127.36" y1="72.8376" x2="127.36" y2="98.0909" gradientTransform="matrix(1 0 0 -1 0 103.89)">
			<stop  offset="0" style="stop-color:#FCD6AB"/>
			<stop  offset="2.940000e-02" style="stop-color:#FBCD98"/>
			<stop  offset="9.540000e-02" style="stop-color:#FABB73"/>
			<stop  offset="0.1645" style="stop-color:#F8AC54"/>
			<stop  offset="0.2365" style="stop-color:#F7A13C"/>
			<stop  offset="0.3129" style="stop-color:#F7982B"/>
			<stop  offset="0.3962" style="stop-color:#F69421"/>
			<stop  offset="0.5" style="stop-color:#F6921E"/>
			<stop  offset="0.6038" style="stop-color:#F69421"/>
			<stop  offset="0.6871" style="stop-color:#F7982B"/>
			<stop  offset="0.7635" style="stop-color:#F7A13C"/>
			<stop  offset="0.8355" style="stop-color:#F8AC54"/>
			<stop  offset="0.9046" style="stop-color:#FABB73"/>
			<stop  offset="0.9706" style="stop-color:#FBCD98"/>
			<stop  offset="1" style="stop-color:#FCD6AB"/>
		</linearGradient>
		<rect x="127" y="5.6" class="st9" width="0.8" height="25.4"/>
	</g>
	<g>
		<g>
			<g>
				<g>
					
						<linearGradient id="SVGID_2_" gradientUnits="userSpaceOnUse" x1="155.361" y1="17.9868" x2="294.5933" y2="99.994" gradientTransform="matrix(1 0 0 -1 0 103.89)">
						<stop  offset="0" style="stop-color:#FC6D04"/>
						<stop  offset="6.060000e-02" style="stop-color:#FC5F04"/>
						<stop  offset="0.2198" style="stop-color:#FD4103"/>
						<stop  offset="0.3873" style="stop-color:#FD2903"/>
						<stop  offset="0.5647" style="stop-color:#FE1802"/>
						<stop  offset="0.7586" style="stop-color:#FE0E02"/>
						<stop  offset="1" style="stop-color:#FE0B02"/>
					</linearGradient>
					<path class="st10" d="M248.7,43.3h-1.3h-1.6v-4h-3.7v4h-1.2h-1.7H218h-1.5h-15.8h-1.5h-6.7H191h-0.9v-1.3
						c0-3.8-1.5-5.4-5.3-5.4h-5.1c-2.3,0-2.8-0.5-2.8-2.6h-3.4c0,0.4-0.1,0.7-0.1,1c0,3.7,1.6,4.7,5.2,4.7h4.9c2,0,2.9,0.3,2.9,2.5
						v1.1h-15.8h-1.5h-14h-1.8h-0.1l0,0c-4,0-5.4,2.9-5.4,6.8v11.4c0,3.9,1.3,6.4,5.1,6.4c0.4,0,0.5,0,0.9,0v-3.2h-0.2
						c-1.6,0-2.1-0.7-2.1-2.8V49.9c0-2,0.6-3.5,2.5-3.5h1h8.9v1.8l-4.8,2c-3.1,1.4-4.1,2.8-4.1,6.4v1.1c0,3.2,1.3,4.8,4.1,6.7
						l5.1,3.3h3.3V46.4h1.4h1.5h8v3.3c0,1.5-0.6,2.3-2,2.3c-1.5,0-2.1-0.7-2.1-2.3V49h-3.7v0.9c0,3.8,1.9,5.5,5.3,5.5
						c1.3,0,2.3-0.3,3.1-0.8c0.1,0.3,0.3,0.5,0.4,0.8c-2.2,0.6-3.6,2.1-3.6,4.9v2.2c0,4,2.4,5.7,7.1,5.7c5.1,0,7.1-1.8,7.1-5.7v-1.8
						h-3.8v1.6c0,1.5-0.7,2.5-3.4,2.5s-3.4-0.9-3.4-2.5V60c0-1.3,0.7-2.5,2.7-2.5h2.3c4.1,0,5.4-2.2,5.4-5.7v-3.2
						c0-0.9-0.2-1.7-0.6-2.3h1.5h1.5h2.1c-0.8,1.1-1.1,2.6-1.1,4.8v10.3c0,3.9,1.3,6.4,5.1,6.4c0.4,0,0.5,0,0.9,0v-3.2h-0.2
						c-1.6,0-2.1-0.7-2.1-2.8V49.9c0-2,0.4-3.5,2.4-3.5h1.2h1v2.6c0,1.7,0.2,3.1,1.3,4.6l0.8,1.2c-0.8,0.9-1.3,2.2-1.3,3.9v0.9
						c0,1.5-0.2,2.2-1.6,2.2h-0.8v3.2c0.1,0,0.8,0.1,1.3,0.1c3.6,0,4.8-1.7,4.8-5.5v-0.8c0-1.8,0.7-2.3,2-2.3h1
						c1.5,0,2.1,0.9,2.2,2.1v9.3h3.7V46.4h1.4h1.5h16.3v4.1c-0.5-0.5-1.4-0.7-2.4-0.7c-1.9,0-3,0.9-3.6,1.9c-0.6-1.2-2-1.9-4.1-1.9
						c-3.8,0-5.6,2-5.6,5.8v4c0,3.8,1.7,5.7,6.3,5.7h2v-3.3H225c-2.4,0-2.7-1.1-2.7-2.5v-3.9c0-1.4,0.3-2.4,2.1-2.4
						c1.8,0,2.1,1,2.1,2.4v2.8h3.7v-2.8c0-1.5,0.2-2.4,2-2.4c1.8,0,2.1,0.9,2.1,2.4v12.3h3.7V46.4h1.2h1.7h1.2v21.4h3.7V46.4h1.6
						h1.3h9.7v1.8l-4.8,2c-3.1,1.4-4.1,2.8-4.1,6.4v1.1c0,3.2,1.2,4.8,4.1,6.7l5.1,3.3h3.3V46.4h2.9v-3.2H248.7z M164.4,63.6
						l-3.1-2.1c-2.1-1.5-2.3-2.1-2.3-4.3c0-2.3,0.3-2.9,2.1-3.8l3.1-1.3v7.2c0,1.8,0.1,3.2,0.3,4.3L164.4,63.6z M186.4,52
						c0,1.6-0.6,2.3-2,2.3h-0.2c-1.4,0-2-0.7-2-2.3v-5.6h2.5c1.6,0,1.7,0.7,1.7,2V52z M211.3,54.2c-0.4-0.5-1-0.9-2.4-0.9h-1.3
						c-0.3,0-0.5,0-0.7,0l-0.5-0.8c-0.8-1.2-1-2-1-3.5v-2.6h5.9L211.3,54.2L211.3,54.2z M258.7,63.6l-3.1-2.1
						c-2.1-1.5-2.3-2.1-2.3-4.3c0-2.3,0.3-2.9,2.1-3.8l3.1-1.3v7.2c0,1.8,0.1,3.2,0.3,4.3L258.7,63.6z"/>
					
						<linearGradient id="SVGID_3_" gradientUnits="userSpaceOnUse" x1="172.545" y1="-11.2086" x2="311.7917" y2="70.807" gradientTransform="matrix(1 0 0 -1 0 103.89)">
						<stop  offset="0" style="stop-color:#FC6D04"/>
						<stop  offset="6.060000e-02" style="stop-color:#FC5F04"/>
						<stop  offset="0.2198" style="stop-color:#FD4103"/>
						<stop  offset="0.3873" style="stop-color:#FD2903"/>
						<stop  offset="0.5647" style="stop-color:#FE1802"/>
						<stop  offset="0.7586" style="stop-color:#FE0E02"/>
						<stop  offset="1" style="stop-color:#FE0B02"/>
					</linearGradient>
					<path class="st11" d="M251.7,66.4c-1.6,0-2.1,0.9-2.1,2.1c0,1.2,0.5,2.1,2.1,2.1c1.6,0,2.1-0.9,2.1-2.1
						C253.8,67.3,253.3,66.4,251.7,66.4z"/>
				</g>
				<g>
					
						<linearGradient id="SVGID_4_" gradientUnits="userSpaceOnUse" x1="164.296" y1="2.8143" x2="303.5296" y2="84.8222" gradientTransform="matrix(1 0 0 -1 0 103.89)">
						<stop  offset="0" style="stop-color:#FC6D04"/>
						<stop  offset="6.060000e-02" style="stop-color:#FC5F04"/>
						<stop  offset="0.2198" style="stop-color:#FD4103"/>
						<stop  offset="0.3873" style="stop-color:#FD2903"/>
						<stop  offset="0.5647" style="stop-color:#FE1802"/>
						<stop  offset="0.7586" style="stop-color:#FE0E02"/>
						<stop  offset="1" style="stop-color:#FE0B02"/>
					</linearGradient>
					<path class="st12" d="M215.1,67.9h-3.7v4h-1.2h-1.7H202h-1.5h-29.4V75h24.3v17.2l-4.2-2.8c0.4-1.1,0.6-2.4,0.6-3.9v-2.9
						c0-3.7-1.6-5.8-5.7-5.8c-4.1,0-5.6,2.2-5.6,5.8v3.3h3.6v-3.3c0-1.6,0.2-2.6,1.9-2.6c1.7,0,2,1,2,2.6v2.8c0,3.2-0.6,4.6-4.4,4.6
						h-1.9c-3.7,0-4.8-1.3-4.8-4.6v-6.6h-3.7v6.6c0,5.3,2.6,7.9,8.4,7.9h2.1c2.2,0,3.9-0.4,5.2-1.2l6.4,4.3h3.7V75h1.4h1.5h1.4
						c-0.7,1-1,2-1,3.3c0,1.9,0.3,3.1,1.1,5.9c0.6,2.3,0.9,3.4,0.9,5.7c0,3.6-2,6.5-2,6.5h4c0,0,1.8-2.5,1.8-6.5
						c0-2.3-0.2-3.6-1-6.7c-0.7-2.5-0.9-3.6-0.9-4.9c0-1.4,0.3-2.3,1.1-3.2h1.1h1.7h1.2v21.4h3.7V75h2.9v-3.2h-2.9L215.1,67.9
						L215.1,67.9z"/>
					
						<linearGradient id="SVGID_5_" gradientUnits="userSpaceOnUse" x1="174.9873" y1="-15.3369" x2="314.2213" y2="66.6713" gradientTransform="matrix(1 0 0 -1 0 103.89)">
						<stop  offset="0" style="stop-color:#FC6D04"/>
						<stop  offset="6.060000e-02" style="stop-color:#FC5F04"/>
						<stop  offset="0.2198" style="stop-color:#FD4103"/>
						<stop  offset="0.3873" style="stop-color:#FD2903"/>
						<stop  offset="0.5647" style="stop-color:#FE1802"/>
						<stop  offset="0.7586" style="stop-color:#FE0E02"/>
						<stop  offset="1" style="stop-color:#FE0B02"/>
					</linearGradient>
					<path class="st13" d="M232.4,88.2c1.2-0.6,1.7-2,1.7-3.8v-3.3c0-3.5-2-5.6-6-5.6c-4.1,0-6,2.1-6,5.6v2.7h3.6v-2.7
						c0-1.3,0.5-2.2,2.4-2.2c1.8,0,2.3,0.9,2.3,2.2v3.2c0,1.2-0.3,2.2-2.3,2.2h-1.7v3.4h1.9c2,0,2.3,1,2.3,2.2v2.3
						c0,1.9-0.9,2.5-3.2,2.5c-2.8,0-3.4-1-3.4-4.2v-6.2h-3.7v6.3c0,4.9,1.4,7.6,7.1,7.6c4.6,0,6.9-1.5,6.9-5.9v-2.5
						C234.4,90.2,233.7,88.8,232.4,88.2z"/>
					
						<linearGradient id="SVGID_6_" gradientUnits="userSpaceOnUse" x1="183.26" y1="-29.383" x2="322.4934" y2="52.6249" gradientTransform="matrix(1 0 0 -1 0 103.89)">
						<stop  offset="0" style="stop-color:#FC6D04"/>
						<stop  offset="6.060000e-02" style="stop-color:#FC5F04"/>
						<stop  offset="0.2198" style="stop-color:#FD4103"/>
						<stop  offset="0.3873" style="stop-color:#FD2903"/>
						<stop  offset="0.5647" style="stop-color:#FE1802"/>
						<stop  offset="0.7586" style="stop-color:#FE0E02"/>
						<stop  offset="1" style="stop-color:#FE0B02"/>
					</linearGradient>
					<path class="st14" d="M240,97.7c-1.7,0-2.2,0.9-2.2,2.1c0,1.2,0.5,2.2,2.2,2.2c1.6,0,2.1-0.9,2.1-2.2
						C242.1,98.7,241.6,97.7,240,97.7z"/>
					
						<linearGradient id="SVGID_7_" gradientUnits="userSpaceOnUse" x1="182.1832" y1="-27.5543" x2="321.4163" y2="54.4534" gradientTransform="matrix(1 0 0 -1 0 103.89)">
						<stop  offset="0" style="stop-color:#FC6D04"/>
						<stop  offset="6.060000e-02" style="stop-color:#FC5F04"/>
						<stop  offset="0.2198" style="stop-color:#FD4103"/>
						<stop  offset="0.3873" style="stop-color:#FD2903"/>
						<stop  offset="0.5647" style="stop-color:#FE1802"/>
						<stop  offset="0.7586" style="stop-color:#FE0E02"/>
						<stop  offset="1" style="stop-color:#FE0B02"/>
					</linearGradient>
					<path class="st15" d="M284.7,78.7v-3.2h-22h-1.3h-1.6v-4H256v4h-1.2h-1.7h-17.8v3.2h4.3c1.5,0.1,1.6,1.2,1.6,2.5v1.7
						c0,2.2-0.7,2.8-2.8,2.8h-0.7v3.7c0,2.9,0.6,4,3.8,6.2l6.6,4.5h3.7V78.7h1.2h1.7h1.2v21.4h3.7V78.7h1.6h1.3h8.1v7.4
						c0,3.7,1.7,5.3,5.3,5.3c1.4,0,2.4-0.4,2.7-0.6v0.8c0,3.7-1.1,5.2-5.2,5.2h-0.7c-4.3,0-5.6-2-5.6-5.7v-7.1h-3.7V91
						c0,5.6,2.4,9.1,9.3,9.1h0.9c6.4,0,8.7-3.1,8.7-8.6v-7.6h-3.7v2.2c0,1.2-0.3,2-2.1,2c-1.8,0-2.2-0.8-2.2-2v-7.4L284.7,78.7
						L284.7,78.7z M248.1,95.9l-4.3-3c-2.1-1.4-2.4-2.1-2.4-3.6v-1.1c2.4-0.4,3.4-1.8,3.4-4.4V81c0-1.1-0.1-1.8-0.6-2.3h3.9
						L248.1,95.9L248.1,95.9z"/>
					
						<linearGradient id="SVGID_8_" gradientUnits="userSpaceOnUse" x1="179.4264" y1="-22.8632" x2="318.6526" y2="59.1405" gradientTransform="matrix(1 0 0 -1 0 103.89)">
						<stop  offset="0" style="stop-color:#FC6D04"/>
						<stop  offset="6.060000e-02" style="stop-color:#FC5F04"/>
						<stop  offset="0.2198" style="stop-color:#FD4103"/>
						<stop  offset="0.3873" style="stop-color:#FD2903"/>
						<stop  offset="0.5647" style="stop-color:#FE1802"/>
						<stop  offset="0.7586" style="stop-color:#FE0E02"/>
						<stop  offset="1" style="stop-color:#FE0B02"/>
					</linearGradient>
					<polygon class="st16" points="279.9,66.8 275.9,66.8 270.5,73.8 274.5,73.8 					"/>
				</g>
			</g>
			<g>
				
					<linearGradient id="SVGID_9_" gradientUnits="userSpaceOnUse" x1="158.2295" y1="13.1349" x2="297.453" y2="95.1369" gradientTransform="matrix(1 0 0 -1 0 103.89)">
					<stop  offset="0" style="stop-color:#FC6D04"/>
					<stop  offset="6.060000e-02" style="stop-color:#FC5F04"/>
					<stop  offset="0.2198" style="stop-color:#FD4103"/>
					<stop  offset="0.3873" style="stop-color:#FD2903"/>
					<stop  offset="0.5647" style="stop-color:#FE1802"/>
					<stop  offset="0.7586" style="stop-color:#FE0E02"/>
					<stop  offset="1" style="stop-color:#FE0B02"/>
				</linearGradient>
				<polygon class="st17" points="286.6,10 288,12.8 291.2,13.3 288.9,15.5 289.4,18.6 286.6,17.2 283.8,18.6 284.3,15.5 282,13.3 
					285.2,12.8 				"/>
				
					<linearGradient id="SVGID_10_" gradientUnits="userSpaceOnUse" x1="149.0573" y1="28.7263" x2="288.2666" y2="110.7199" gradientTransform="matrix(1 0 0 -1 0 103.89)">
					<stop  offset="0" style="stop-color:#FC6D04"/>
					<stop  offset="6.060000e-02" style="stop-color:#FC5F04"/>
					<stop  offset="0.2198" style="stop-color:#FD4103"/>
					<stop  offset="0.3873" style="stop-color:#FD2903"/>
					<stop  offset="0.5647" style="stop-color:#FE1802"/>
					<stop  offset="0.7586" style="stop-color:#FE0E02"/>
					<stop  offset="1" style="stop-color:#FE0B02"/>
				</linearGradient>
				<polygon class="st18" points="251.7,11.4 253.3,12.7 255.2,12.2 254.5,14 255.5,15.7 253.6,15.6 252.3,17.1 251.8,15.2 
					249.9,14.5 251.6,13.4 				"/>
				
					<linearGradient id="SVGID_11_" gradientUnits="userSpaceOnUse" x1="178.6537" y1="-21.5311" x2="317.8708" y2="60.4672" gradientTransform="matrix(1 0 0 -1 0 103.89)">
					<stop  offset="0" style="stop-color:#FC6D04"/>
					<stop  offset="6.060000e-02" style="stop-color:#FC5F04"/>
					<stop  offset="0.2198" style="stop-color:#FD4103"/>
					<stop  offset="0.3873" style="stop-color:#FD2903"/>
					<stop  offset="0.5647" style="stop-color:#FE1802"/>
					<stop  offset="0.7586" style="stop-color:#FE0E02"/>
					<stop  offset="1" style="stop-color:#FE0B02"/>
				</linearGradient>
				<polygon class="st19" points="298.7,52.3 298.9,54.5 300.8,55.6 298.8,56.4 298.4,58.5 296.9,56.9 294.8,57.1 295.9,55.3 
					295,53.3 297.1,53.8 				"/>
				
					<linearGradient id="SVGID_12_" gradientUnits="userSpaceOnUse" x1="173.2351" y1="-12.4002" x2="312.4864" y2="69.6182" gradientTransform="matrix(1 0 0 -1 0 103.89)">
					<stop  offset="0" style="stop-color:#FC6D04"/>
					<stop  offset="6.060000e-02" style="stop-color:#FC5F04"/>
					<stop  offset="0.2198" style="stop-color:#FD4103"/>
					<stop  offset="0.3873" style="stop-color:#FD2903"/>
					<stop  offset="0.5647" style="stop-color:#FE1802"/>
					<stop  offset="0.7586" style="stop-color:#FE0E02"/>
					<stop  offset="1" style="stop-color:#FE0B02"/>
				</linearGradient>
				<path class="st20" d="M299.7,42.7c0,0.9-0.7,1.6-1.6,1.6s-1.6-0.7-1.6-1.6s0.7-1.6,1.6-1.6C299,41.2,299.7,41.8,299.7,42.7z"/>
				
					<linearGradient id="SVGID_13_" gradientUnits="userSpaceOnUse" x1="148.4209" y1="29.7129" x2="287.683" y2="111.7377" gradientTransform="matrix(1 0 0 -1 0 103.89)">
					<stop  offset="0" style="stop-color:#FC6D04"/>
					<stop  offset="6.060000e-02" style="stop-color:#FC5F04"/>
					<stop  offset="0.2198" style="stop-color:#FD4103"/>
					<stop  offset="0.3873" style="stop-color:#FD2903"/>
					<stop  offset="0.5647" style="stop-color:#FE1802"/>
					<stop  offset="0.7586" style="stop-color:#FE0E02"/>
					<stop  offset="1" style="stop-color:#FE0B02"/>
				</linearGradient>
				<path class="st21" d="M263.6,7.2c0,0.9-0.7,1.6-1.6,1.6s-1.6-0.7-1.6-1.6s0.7-1.6,1.6-1.6C262.9,5.7,263.6,6.4,263.6,7.2z"/>
				
					<linearGradient id="SVGID_14_" gradientUnits="userSpaceOnUse" x1="145.9731" y1="33.9011" x2="285.2211" y2="115.9176" gradientTransform="matrix(1 0 0 -1 0 103.89)">
					<stop  offset="0" style="stop-color:#FC6D04"/>
					<stop  offset="6.060000e-02" style="stop-color:#FC5F04"/>
					<stop  offset="0.2198" style="stop-color:#FD4103"/>
					<stop  offset="0.3873" style="stop-color:#FD2903"/>
					<stop  offset="0.5647" style="stop-color:#FE1802"/>
					<stop  offset="0.7586" style="stop-color:#FE0E02"/>
					<stop  offset="1" style="stop-color:#FE0B02"/>
				</linearGradient>
				<path class="st22" d="M237.9,16.6c0,0.7-0.6,1.3-1.3,1.3s-1.3-0.6-1.3-1.3s0.6-1.3,1.3-1.3C237.3,15.3,237.9,15.9,237.9,16.6z"
					/>
				
					<linearGradient id="SVGID_15_" gradientUnits="userSpaceOnUse" x1="162.4821" y1="5.9855" x2="301.674" y2="87.9689" gradientTransform="matrix(1 0 0 -1 0 103.89)">
					<stop  offset="0" style="stop-color:#FC6D04"/>
					<stop  offset="6.060000e-02" style="stop-color:#FC5F04"/>
					<stop  offset="0.2198" style="stop-color:#FD4103"/>
					<stop  offset="0.3873" style="stop-color:#FD2903"/>
					<stop  offset="0.5647" style="stop-color:#FE1802"/>
					<stop  offset="0.7586" style="stop-color:#FE0E02"/>
					<stop  offset="1" style="stop-color:#FE0B02"/>
				</linearGradient>
				<path class="st23" d="M298,18.7c0,0.6-0.5,1-1,1c-0.6,0-1-0.5-1-1c0-0.6,0.5-1,1-1C297.6,17.6,298,18.1,298,18.7z"/>
			</g>
			
				<linearGradient id="SVGID_16_" gradientUnits="userSpaceOnUse" x1="167.2266" y1="-2.1567" x2="306.4574" y2="79.8497" gradientTransform="matrix(1 0 0 -1 0 103.89)">
				<stop  offset="0" style="stop-color:#FC6D04"/>
				<stop  offset="6.060000e-02" style="stop-color:#FC5F04"/>
				<stop  offset="0.2198" style="stop-color:#FD4103"/>
				<stop  offset="0.3873" style="stop-color:#FD2903"/>
				<stop  offset="0.5647" style="stop-color:#FE1802"/>
				<stop  offset="0.7586" style="stop-color:#FE0E02"/>
				<stop  offset="1" style="stop-color:#FE0B02"/>
			</linearGradient>
			<path class="st24" d="M258.8,28l9.9-0.5l3.8-10.6l4.4,11l13.3,0.2l-11.7,7.6l6.8,8.5l-3.6-7.4l17-11.7l-19.4-0.8L272.5,2l-7.1,21
				h-21.8c0,0,5.5,2.8,9.8,5.6c0.2,0.1,0.4,0.2,0.5,0.3c8.9,6.1,19.2,14.8,25.7,21.5c14.4,15.7,4.8,25.3,4.8,25.3s-1.2,1.4-2.1,3
				h2.3C312.2,66.9,258.8,28,258.8,28z"/>
		</g>
	</g>
</g>
</svg>
