<svg width="24" height="24" viewBox="0 0 24 24" fill="none" xmlns="http://www.w3.org/2000/svg">
<path d="M8.08375 18.3676C8.07708 18.3409 8.07042 18.3076 8.05709 18.2809C8.04376 18.2543 8.03043 18.2276 8.0171 18.201C7.99711 18.1743 7.97712 18.1543 7.95712 18.1277C7.93713 18.1077 7.91047 18.0877 7.88382 18.0677C7.85716 18.0477 7.8305 18.0344 7.80384 18.021C7.77719 18.0077 7.74386 18.001 7.71721 17.9944C7.65723 17.981 7.59725 17.981 7.53727 17.9944C7.51061 18.001 7.47729 18.0077 7.45063 18.021C7.42397 18.0344 7.39732 18.0477 7.37066 18.0677C7.344 18.081 7.32401 18.101 7.29735 18.1277C7.27736 18.1477 7.25736 18.1743 7.23737 18.201C7.21738 18.2276 7.20405 18.2543 7.19738 18.2809C7.18406 18.3076 7.17739 18.3409 7.17073 18.3676C7.16406 18.4009 7.16406 18.4276 7.16406 18.4609C7.16406 18.4942 7.17073 18.5209 7.17073 18.5542C7.17739 18.5875 7.18406 18.6142 7.19738 18.6408C7.21071 18.6675 7.22404 18.6941 7.23737 18.7208C7.25736 18.7474 7.27736 18.7674 7.29735 18.7941C7.31734 18.8141 7.344 18.8341 7.37066 18.8541C7.39732 18.8741 7.42397 18.8874 7.45063 18.9007C7.47729 18.9141 7.51061 18.9207 7.53727 18.9274C7.56393 18.934 7.59725 18.934 7.63057 18.934C7.66389 18.934 7.69055 18.934 7.72387 18.9274C7.75053 18.9207 7.78385 18.9141 7.81051 18.9007C7.83716 18.8874 7.86382 18.8741 7.89048 18.8541C7.91714 18.8341 7.93713 18.8208 7.96379 18.7941C7.98378 18.7741 8.00377 18.7474 8.02377 18.7208C8.04376 18.6941 8.05709 18.6675 8.06375 18.6408C8.07708 18.6142 8.08375 18.5808 8.09041 18.5542C8.09708 18.5275 8.09708 18.4942 8.09708 18.4609C8.09708 18.4342 8.09041 18.4009 8.08375 18.3676Z" fill="#060303"/>
<path d="M21.5526 18.5154C21.5526 18.5087 21.5459 18.5087 21.5459 18.5021C21.1128 17.4958 20.1064 17.1225 18.9068 17.5291L15.6413 18.4288C15.4547 17.8556 14.9815 17.3691 14.3151 17.1225C14.3084 17.1225 14.3084 17.1225 14.3018 17.1159L10.7097 15.8963C10.4098 15.5098 9.47675 14.5234 7.72402 14.5234C6.49777 14.5234 5.41814 15.3631 4.79835 16.2762H0.466507C0.206596 16.2762 0 16.4894 0 16.7427V22.654C0 22.9139 0.206596 23.1205 0.466507 23.1205H3.25222C3.51213 23.1205 3.71872 22.9072 3.71872 22.654V22.2475H5.02494C5.28485 22.2475 5.49145 22.0409 5.49145 21.7809V21.6477C6.25119 21.7143 6.50444 21.8609 7.2042 22.2608C7.74401 22.574 8.55706 23.0405 10.0166 23.7003C10.0232 23.707 10.0299 23.707 10.0366 23.707C10.3298 23.8269 10.8763 24.0002 11.556 24.0002C12.0292 24.0002 12.5624 23.9135 13.1088 23.667L20.3264 21.0812C20.3397 21.0745 20.353 21.0745 20.3663 21.0679C21.0461 20.748 22.0791 19.8549 21.5526 18.5154ZM2.78571 22.1941H0.939678V17.2225H2.78571V22.1941ZM4.55844 21.3211H3.72539V17.2225H4.5651V21.3211H4.55844ZM19.9865 20.2082L12.7756 22.7939C12.769 22.7939 12.7623 22.8006 12.7556 22.8006C12.749 22.8006 12.7423 22.8073 12.7356 22.8073C11.7293 23.2671 10.7763 22.9939 10.4031 22.8472C8.99025 22.2075 8.23051 21.7743 7.68403 21.4544C6.91763 21.0145 6.54442 20.8013 5.50478 20.7146V16.9426C5.95129 16.2162 6.811 15.4698 7.73734 15.4698C9.33013 15.4698 10.0032 16.5028 10.0299 16.5494C10.0899 16.6427 10.1765 16.7094 10.2765 16.7493L14.0019 18.0156C14.595 18.2355 14.9082 18.7487 14.7683 19.2551C14.7016 19.4884 14.5483 19.6817 14.3351 19.8016C14.1218 19.9216 13.8819 19.9482 13.6486 19.8816L9.45009 18.5487C9.20351 18.4687 8.93693 18.6087 8.86363 18.8553C8.78365 19.1019 8.9236 19.3618 9.17019 19.4417L13.3754 20.7746C13.3821 20.7746 13.3821 20.7746 13.3887 20.7813C13.5553 20.8279 13.7286 20.8546 13.8952 20.8546C14.2085 20.8546 14.515 20.7746 14.7949 20.6213C15.2281 20.3814 15.5413 19.9882 15.6746 19.5084C15.688 19.4684 15.6946 19.4351 15.7013 19.3951L19.2201 18.4221C19.7266 18.2488 20.393 18.1888 20.6929 18.8686C20.9928 19.6683 20.1931 20.1082 19.9865 20.2082Z" fill="#060303"/>
<path d="M16.8248 6.17244C16.8181 6.13911 16.8115 6.11246 16.7981 6.0858C16.7848 6.05914 16.7715 6.03248 16.7581 6.00583C16.7381 5.97917 16.7182 5.95918 16.6982 5.93252C16.6782 5.91253 16.6515 5.89253 16.6249 5.87254C16.5982 5.85255 16.5715 5.83922 16.5449 5.83255C16.5182 5.81922 16.4849 5.81256 16.4582 5.8059C16.3983 5.79257 16.3383 5.79257 16.2716 5.8059C16.245 5.81256 16.2117 5.81922 16.185 5.83255C16.1583 5.84588 16.1317 5.85921 16.105 5.87254C16.0784 5.89253 16.0584 5.90586 16.0317 5.93252C16.0117 5.95251 15.9917 5.97917 15.9717 5.99916C15.9518 6.02582 15.9384 6.05248 15.9318 6.07913C15.9184 6.10579 15.9118 6.13911 15.9051 6.16577C15.8984 6.19243 15.8984 6.22575 15.8984 6.25907C15.8984 6.29239 15.9051 6.31905 15.9051 6.35237C15.9118 6.37903 15.9184 6.41235 15.9318 6.43901C15.9451 6.46567 15.9584 6.49233 15.9717 6.51898C15.9917 6.54564 16.0117 6.56563 16.0317 6.59229C16.0517 6.61229 16.0784 6.63228 16.105 6.65227C16.1317 6.67226 16.1583 6.68559 16.185 6.69892C16.2117 6.71225 16.245 6.71892 16.2716 6.72558C16.2983 6.73224 16.3316 6.73224 16.3649 6.73224C16.3983 6.73224 16.4249 6.72558 16.4582 6.72558C16.4849 6.71892 16.5182 6.71225 16.5449 6.69892C16.5715 6.68559 16.5982 6.67226 16.6249 6.65227C16.6515 6.63894 16.6715 6.61895 16.6982 6.59229C16.7182 6.5723 16.7381 6.54564 16.7581 6.51898C16.7781 6.49233 16.7915 6.46567 16.7981 6.43901C16.8115 6.41235 16.8181 6.37903 16.8248 6.35237C16.8315 6.31905 16.8315 6.29239 16.8315 6.25907C16.8315 6.23242 16.8315 6.19909 16.8248 6.17244Z" fill="#060303"/>
<path d="M23.5228 1.59445H20.7371C20.4771 1.59445 20.2705 1.80771 20.2705 2.06096V2.46749H18.9643C18.7044 2.46749 18.4978 2.67408 18.4978 2.93399V3.06728C17.7381 3.00064 17.4848 2.85402 16.7851 2.45416C16.2453 2.14093 15.4322 1.67443 13.9727 1.01465C13.966 1.00799 13.9594 1.00799 13.9527 1.00799C13.4795 0.821385 12.2266 0.44818 10.8938 1.05464L9.00775 1.72774L7.42163 0.134954C7.23502 -0.0449846 6.94179 -0.0449846 6.76185 0.134954L1.53031 5.36649C1.3637 5.5331 1.33038 5.82633 1.53031 6.02627L10.4473 14.9432C10.5872 15.0832 10.9271 15.1298 11.107 14.9432L15.8721 10.1782C15.9987 10.1915 16.1253 10.1915 16.2586 10.1915C17.4848 10.1915 18.5645 9.35179 19.1843 8.43877H23.5228C23.7827 8.43877 23.9893 8.23217 23.9893 7.97226V2.06096C23.9893 1.80771 23.7827 1.59445 23.5228 1.59445ZM7.07508 1.14128L8.14138 2.20758C7.82149 2.40084 7.45495 2.50747 7.07508 2.50747C6.68854 2.50747 6.322 2.40084 6.00878 2.20758L7.07508 1.14128ZM3.58961 6.76601L2.52331 5.69971L3.58961 4.63341C3.78287 4.9533 3.8895 5.31984 3.8895 5.69971C3.8895 6.07958 3.78287 6.44612 3.58961 6.76601ZM10.7738 13.9502L9.70751 12.8839C10.3606 12.484 11.1937 12.484 11.8401 12.8839L10.7738 13.9502ZM12.5199 12.2041C11.4869 11.4511 10.0674 11.4511 9.03441 12.2041L4.26271 7.43911C4.62925 6.93929 4.82918 6.33283 4.82918 5.69971C4.82918 5.06659 4.62925 4.46014 4.26271 3.95364L5.32901 2.88734C5.8355 3.25388 6.4353 3.45381 7.07508 3.45381C7.71486 3.45381 8.31465 3.25388 8.82114 2.88734L9.83413 3.90033C9.61421 3.93365 9.40095 4.00696 9.20101 4.11359C8.8678 4.30019 8.60122 4.58009 8.43461 4.91998C7.90812 5.01994 7.41496 5.27319 7.03509 5.65972C5.99545 6.69937 5.99545 8.39878 7.03509 9.43843C7.55491 9.95825 8.24134 10.2182 8.92111 10.2182C9.60088 10.2182 10.2873 9.95825 10.8071 9.43843C11.147 9.09854 11.3803 8.68535 11.5002 8.23217L13.0797 8.77199C12.8997 9.59837 13.0863 10.4647 13.5795 11.1445L12.5199 12.2041ZM9.66752 7.59906C9.67419 7.59906 9.67418 7.59906 9.68085 7.60572L10.6205 7.92561C10.5472 8.2455 10.3873 8.53874 10.154 8.77199C9.48092 9.44509 8.3813 9.44509 7.70153 8.77199C7.02843 8.09889 7.02843 6.99927 7.70153 6.3195C7.86147 6.15289 8.05474 6.02627 8.268 5.93963C8.35464 6.65938 8.8678 7.30583 9.66752 7.59906ZM14.2659 10.4581C14.086 10.1648 13.9794 9.82496 13.966 9.48508C14.1926 9.64502 14.4659 9.80497 14.7924 9.93159L14.2659 10.4581ZM18.4912 7.78566C18.0446 8.51208 17.1849 9.25849 16.2586 9.25849C16.0853 9.25849 15.9254 9.24516 15.7721 9.22517C14.7591 9.07855 14.2126 8.50541 14.0327 8.27216C14.026 8.25883 13.986 8.20552 13.9794 8.19885C13.9261 8.09889 13.8328 8.02558 13.7195 7.98559L9.99408 6.71936C9.40095 6.49944 9.08772 5.98628 9.22767 5.47979C9.29432 5.24653 9.4476 5.05327 9.66086 4.93331C9.87412 4.81335 10.114 4.78669 10.3473 4.85333L14.5458 6.18621C14.7924 6.26618 15.059 6.12623 15.1323 5.87965C15.2123 5.63307 15.0723 5.36649 14.8258 5.29318L11.4869 4.23355L11.4602 4.20023L9.73416 2.47415L11.2203 1.941C11.227 1.941 11.2337 1.93434 11.2337 1.93434H11.2403C11.247 1.93434 11.2536 1.92767 11.2603 1.92767C12.2666 1.46783 13.2196 1.74107 13.5928 1.88769C15.0057 2.5208 15.7654 2.96065 16.3119 3.28054C17.0783 3.72039 17.4515 3.93365 18.4912 4.02029V7.78566ZM20.2639 7.50576H19.4242V3.40716H20.2639V7.50576ZM23.0496 7.50576H21.2036V2.53413H23.0496V7.50576Z" fill="#060303"/>
</svg>
