<?xml version="1.0" encoding="utf-8"?>
<!-- Generator: Adobe Illustrator 16.0.0, SVG Export Plug-In . SVG Version: 6.00 Build 0)  -->
<!DOCTYPE svg PUBLIC "-//W3C//DTD SVG 1.1//EN" "http://www.w3.org/Graphics/SVG/1.1/DTD/svg11.dtd">
<svg version="1.1" id="Layer_1" xmlns="http://www.w3.org/2000/svg" xmlns:xlink="http://www.w3.org/1999/xlink" x="0px" y="0px"
	 width="120px" height="40px" viewBox="0 0 70 21" enable-background="new 0 0 70 21" xml:space="preserve">
<g>
	<g>
		<path fill="#008040" d="M7.534,4.437c0-0.645,0-2.433,0-2.433C6.866,1.762,5.753,1.529,5.29,1.885c0,0.866,0,3.801,0,3.801h2.855
			C7.534,5.331,7.534,5.077,7.534,4.437z"/>
		<path fill="#008040" d="M22.456,9.883c0,0,0-2.723,0-3.524c0,0-1.556,0-2.568,0c0.054,0,0.38,0.175,0.5,0.839c0,0,0,2.285,0,2.741
			C20.388,10.391,21.839,10.127,22.456,9.883z"/>
		<path fill="#008040" d="M36.086,9.482c0,0,0,2.046,0,2.843c0,0,1.555,0,2.566,0c-0.045,0-0.381-0.171-0.5-0.83c0,0,0-2.294,0-2.75
			C38.152,8.298,36.633,8.418,36.086,9.482z"/>
		<path fill="#008040" d="M66.498,9.883c0,0,0-2.723,0-3.524c0,0-1.553,0-2.568,0c0.055,0,0.381,0.175,0.502,0.839
			c0,0,0,2.285,0,2.741C64.432,10.391,65.875,10.127,66.498,9.883z"/>
		<path fill="#008040" d="M56.328,4.782h-2.662c0,0-0.051,0.932-0.051,3.276c0.799,0,1.967-0.3,2.074-0.663c0,0,0-0.747,0-1.147
			C55.689,5.823,55.521,5.275,56.328,4.782z"/>
		<path fill="#008040" d="M61.318,0.138c-0.334,0-0.703,0-1.109,0c-0.848,0-1.848,0-2.963,0c-3.469,0-8.039,0-12.5,0
			c-5.797,0-11.389,0-14.053,0h-1.621h-3.117c0,0-0.135,0-0.373,0c-1.828,0-9.802,0-10.904,0c0,0-0.045,0-0.119,0
			c-0.839,0-6.092,0-9.248,0v1.134c1.756,0,3.539,0.49,4.05,2.562c1.067,5.373-7.022,5.935-9.317,1.825c0,0-0.073,0.802-0.027,1.092
			c4.433,5.778,9.902,2.995,10.792,0.991c0.433,0.387,2.244,1.755,1.864,3.506c0,0,1.075,0,2.006,0V1.493c1.895,0,9.16,0,9.16,0
			c0,0.687,0,3.52,0,3.52c-0.764-0.839-2.182-2.036-4.574-1.649c0,0-0.523,0.055-0.842,0.189c-1.914,0.649-2.716,2.175-2.527,3.847
			c0.173,2.364,3.732,4.746,6.549,3.354c0,0,0.02-0.521,0.036-0.687c-0.272,0.364-4.154,1.18-4.853-2.087
			c-0.207-3.876,4.77-4.078,5.815-2.317c0.944,0.806,0.512,5.091,0.129,5.584c0,0,1.136,0,2.383,0V1.488c0.547,0,1.49,0,2,0
			c-1.334,1.963-0.473,4.47,0.598,7.99c0.607,2.142-2.775,4.432-6.096,3.233v1.476c4.852,0.562,8.838-2.793,7.86-6.691
			c-0.252-1.861-2.039-4.57-0.973-6.197c4.342,0,9.661,0,9.661,0c-2.164,0.263-6.516,0.774-7.561,4.995
			c-0.154,2.488,1.629,4.101,3.764,4.705c0.211,0.059,0.428,0.11,0.639,0.146l-0.004-1.138c-0.109-0.064-0.23-0.125-0.35-0.203
			c-3.061-1.797-2.105-7.653,3.682-7.741v7.977c0,0.207-0.143,0.673-0.783,0.76v0.567c0.83,0.005,2.158-0.037,3-0.046
			c0-0.876,0-9.151,0-9.151V1.361c0.666,0,4.48,0,8.596,0c-2.268,0.292-6.092,1.016-7.063,4.933c-0.15,2.488,1.639,4.101,3.77,4.705
			c1.863,0.524,4.268,0.345,6.18,0.322c0-0.876,0-9.151,0-9.151c4.047-0.226,6.852,6.313,0.814,6.115
			c-0.076,0.243-0.098,0.773-0.098,0.773c4.373,0.351,5.73-2.18,4.859-4.345c-0.545-1.6-1.959-2.932-5.576-3.353
			c1.564,0,3.07,0,4.373,0c1.17,0,2.18,0,2.891,0c0.078,0.887,0.539,2.043,2.332,2.182c-1.91,0.645-2.715,2.171-2.523,3.848
			c0.168,2.359,3.734,4.736,6.545,3.354c0,0,0.02-0.525,0.035-0.683c-0.27,0.359-4.152,1.175-4.85-2.092
			c-0.207-3.879,4.766-4.077,5.813-2.326c0.947,0.815,0.514,5.101,0.129,5.593c0,0,1.133,0,2.383,0v-11.1
			C70,0.138,63.896,0.138,61.318,0.138z M12.568,7.621c-0.299-0.659-1.235-1.124-1.325-1.235c0.431-2.175-0.701-3.995-2.599-4.893
			h3.924C12.568,2.257,12.568,7.621,12.568,7.621z M50.658,10.04c0,0.217-0.416,0.451-1.018,0.451c-0.553,0-1.215,0.083-2.662-0.687
			c-3.137-1.658-2.107-7.653,3.68-7.741V10.04z M67.885,5.009c-0.766-0.844-1.928-2.028-4.332-1.691
			c-1.799-0.354-1.852-1.652-0.225-1.834c1.68,0,4.557,0,4.557,0C67.885,2.17,67.885,5.009,67.885,5.009z"/>
	</g>
	<g>
		<path fill="#4C4C4C" d="M29.14,20.355c-0.959,0-1.697-0.581-2.219-1.738l0.238-0.313c0.461,1.083,1.07,1.627,1.826,1.627
			c0.201,0,0.379-0.054,0.531-0.161c0.172-0.12,0.258-0.276,0.258-0.47c0-0.185-0.051-0.339-0.152-0.464
			c-0.1-0.124-0.24-0.186-0.418-0.186c-0.129,0-0.256,0.036-0.379,0.115l-0.166-0.438c0.123-0.115,0.262-0.17,0.416-0.17
			c0.051,0,0.102,0.004,0.154,0.019c0.264-0.102,0.396-0.309,0.396-0.623c0-0.193-0.068-0.354-0.203-0.488
			c-0.137-0.136-0.301-0.202-0.492-0.202c-0.131,0-0.262,0.032-0.389,0.101c-0.15,0.079-0.223,0.178-0.223,0.302
			c0,0.155,0.123,0.235,0.371,0.243l-0.205,0.321l-0.051,0.013c-0.021,0.009-0.039,0.013-0.051,0.013
			c-0.137,0-0.256-0.051-0.354-0.149c-0.1-0.102-0.146-0.221-0.146-0.357c0-0.255,0.107-0.468,0.326-0.634
			c0.195-0.153,0.428-0.229,0.691-0.229c0.32,0,0.598,0.104,0.832,0.313c0.236,0.21,0.354,0.475,0.354,0.798
			c0,0.326-0.121,0.566-0.365,0.719c0.348,0.281,0.52,0.62,0.52,1.014c0,0.285-0.111,0.53-0.332,0.729
			C29.687,20.253,29.429,20.355,29.14,20.355z"/>
		<path fill="#4C4C4C" d="M32.363,20.571c-0.51,0-0.842-0.083-1-0.249c-0.373-0.395-0.557-0.875-0.557-1.448
			c0-0.345,0.105-0.689,0.318-1.045c0.139-0.226,0.381-0.539,0.73-0.935h-1.338v-0.388h2.152v0.388
			c-0.359,0.138-0.682,0.394-0.975,0.76c-0.303,0.392-0.455,0.77-0.455,1.143c0,0.922,0.383,1.383,1.148,1.383
			c0.107,0,0.223-0.046,0.346-0.139v0.447C32.623,20.543,32.5,20.571,32.363,20.571z"/>
		<path fill="#4C4C4C" d="M35.63,16.895v3.428h-0.447c-0.551-0.449-1.416-0.806-2.596-1.078l-0.141-0.498l1.467-0.636
			c-0.131-0.212-0.348-0.392-0.646-0.532c-0.277-0.132-0.553-0.202-0.828-0.209v-0.475h-0.371v-0.388h3.961v0.388H35.63z
			 M35.183,16.895h-2.18c0.334,0.179,0.584,0.326,0.75,0.442c0.303,0.198,0.512,0.394,0.621,0.58v0.507l-1.063,0.488
			c0.77,0.3,1.393,0.604,1.871,0.911V16.895z M34.214,20.861c-0.256-0.124-0.5-0.212-0.73-0.258l0.084-0.396
			c0.277,0.042,0.557,0.152,0.834,0.327L34.214,20.861z"/>
		<path fill="#4C4C4C" d="M39.426,16.895v3.433h-0.41c-0.209-0.336-0.609-0.666-1.199-0.986s-1.088-0.488-1.5-0.5l-0.141-0.532
			c0.258-0.196,0.709-0.424,1.35-0.678c0.193-0.073,0.682-0.258,1.465-0.558v-0.179h-3.124v-0.388h4.026v0.388H39.426z
			 M38.99,17.578c-0.445,0.15-1.139,0.447-2.078,0.892c0.811,0.291,1.504,0.688,2.078,1.191V17.578z"/>
		<path fill="#4C4C4C" d="M44.672,16.895v3.382h-0.445v-1.698c0-0.119-0.043-0.228-0.121-0.325
			c-0.078-0.101-0.176-0.147-0.291-0.147c-0.203,0-0.395,0.188-0.574,0.563c-0.203,0.424-0.332,0.673-0.387,0.751
			c-0.188,0.268-0.416,0.404-0.678,0.404c-0.139,0-0.314-0.072-0.533-0.213v-0.432c0.154,0.139,0.313,0.208,0.473,0.208
			c0.176,0,0.344-0.143,0.502-0.424c0.141-0.249,0.213-0.461,0.213-0.641c0-0.585-0.344-1.062-1.027-1.428h-0.436v-0.388h3.678
			v0.388H44.672z M44.227,16.895h-1.713c0.18,0.115,0.334,0.276,0.465,0.485c0.133,0.21,0.207,0.417,0.223,0.622
			c0.199-0.218,0.385-0.326,0.551-0.326c0.209,0,0.367,0.136,0.475,0.402V16.895z"/>
		<path fill="#4C4C4C" d="M46.008,16.895v3.428h-0.449v-3.428H45v-0.388h1.52v0.388H46.008z"/>
		<path fill="#4C4C4C" d="M50.773,15.844c-0.746-0.475-1.383-0.714-1.902-0.714c-0.467,0-0.834,0.112-1.109,0.334
			c-0.301,0.243-0.453,0.592-0.453,1.043h0.465v0.388h-0.465v3.414h-0.457v-3.414h-0.475v-0.388h0.475
			c0-0.576,0.199-1.023,0.59-1.345c0.365-0.3,0.844-0.447,1.434-0.447c0.373,0,0.746,0.081,1.123,0.243
			c0.256,0.111,0.596,0.303,1.016,0.576L50.773,15.844z"/>
		<path fill="#4C4C4C" d="M47.572,16.895v-0.388h4.313v0.388H47.572z M50.018,20.305c-0.494,0-0.947-0.222-1.355-0.662
			c-0.355-0.381-0.611-0.836-0.771-1.366l0.271-0.281c0.16,0.493,0.379,0.906,0.652,1.245c0.355,0.437,0.746,0.658,1.172,0.658
			c0.332,0,0.594-0.12,0.797-0.364c0.191-0.23,0.285-0.514,0.285-0.848C50.773,18.898,50.484,19,50.193,19
			c-0.287,0-0.535-0.092-0.744-0.281c-0.225-0.191-0.334-0.428-0.334-0.709c0-0.284,0.078-0.507,0.236-0.671
			c0.16-0.163,0.381-0.246,0.662-0.246c0.201,0,0.373,0.051,0.508,0.151c0.137,0.104,0.201,0.253,0.201,0.451
			c0,0.148-0.08,0.296-0.242,0.44L50.18,17.91c0.102-0.06,0.154-0.146,0.154-0.251c0-0.147-0.092-0.222-0.277-0.222
			c-0.145,0-0.264,0.051-0.361,0.147c-0.098,0.102-0.143,0.221-0.143,0.369c0,0.18,0.064,0.329,0.193,0.447
			c0.131,0.119,0.285,0.177,0.465,0.177c0.355,0,0.67-0.147,0.949-0.442l0.416,0.432c-0.006,0.481-0.143,0.884-0.416,1.211
			C50.871,20.128,50.488,20.305,50.018,20.305z"/>
		<path fill="#4C4C4C" d="M50.75,16.354l-0.557-0.018l1.191-1.047l0.385,0.008L50.75,16.354z"/>
		<path fill="#4C4C4C" d="M53.607,20.571c-0.51,0-0.842-0.083-1-0.249c-0.373-0.395-0.557-0.875-0.557-1.448
			c0-0.345,0.105-0.689,0.318-1.045c0.137-0.226,0.381-0.539,0.73-0.935h-1.338v-0.388h2.152v0.388
			c-0.359,0.138-0.682,0.394-0.973,0.76c-0.305,0.392-0.457,0.77-0.457,1.143c0,0.922,0.383,1.383,1.148,1.383
			c0.105,0,0.221-0.046,0.346-0.139v0.447C53.867,20.543,53.742,20.571,53.607,20.571z"/>
		<path fill="#4C4C4C" d="M56.549,16.895v3.382H56.1v-1.698c0-0.119-0.039-0.228-0.119-0.325c-0.078-0.101-0.176-0.147-0.291-0.147
			c-0.203,0-0.398,0.188-0.578,0.563c-0.199,0.424-0.326,0.673-0.381,0.751c-0.189,0.268-0.416,0.404-0.682,0.404
			c-0.139,0-0.314-0.072-0.531-0.213v-0.432c0.154,0.139,0.311,0.208,0.475,0.208c0.176,0,0.342-0.143,0.5-0.424
			c0.141-0.249,0.209-0.461,0.209-0.641c0-0.585-0.342-1.062-1.025-1.428H53.24v-0.388h3.68v0.388H56.549z M56.1,16.895h-1.711
			c0.18,0.115,0.334,0.276,0.465,0.485c0.129,0.21,0.203,0.417,0.221,0.622c0.201-0.218,0.387-0.326,0.551-0.326
			c0.211,0,0.367,0.136,0.475,0.402V16.895z"/>
		<path fill="#4C4C4C" d="M60.1,16.895v3.382H59.65v-1.698c0-0.119-0.039-0.228-0.119-0.325c-0.078-0.101-0.176-0.147-0.291-0.147
			c-0.205,0-0.398,0.188-0.578,0.563c-0.201,0.424-0.326,0.673-0.383,0.751c-0.188,0.268-0.414,0.404-0.68,0.404
			c-0.139,0-0.314-0.072-0.531-0.213v-0.432c0.154,0.139,0.311,0.208,0.475,0.208c0.176,0,0.342-0.143,0.5-0.424
			c0.141-0.249,0.209-0.461,0.209-0.641c0-0.585-0.342-1.062-1.025-1.428h-0.436v-0.388h3.68v0.388H60.1z M59.65,16.895h-1.713
			c0.182,0.115,0.336,0.276,0.467,0.485c0.129,0.21,0.203,0.417,0.221,0.622c0.201-0.218,0.385-0.326,0.551-0.326
			c0.209,0,0.367,0.136,0.475,0.402V16.895z"/>
		<path fill="#4C4C4C" d="M66.533,15.844c-0.748-0.475-1.383-0.714-1.904-0.714c-0.465,0-0.836,0.112-1.107,0.334
			c-0.305,0.243-0.457,0.592-0.457,1.043h0.469v0.388h-0.469v3.414h-0.453v-3.414h-0.475v-0.388h0.475
			c0-0.576,0.195-1.023,0.59-1.345c0.363-0.3,0.842-0.447,1.432-0.447c0.371,0,0.746,0.081,1.123,0.243
			c0.256,0.111,0.594,0.303,1.014,0.576L66.533,15.844z"/>
		<path fill="#4C4C4C" d="M67.418,16.895v3.428H67c0-0.081,0.008-0.198,0.016-0.354c0.012-0.154,0.018-0.272,0.018-0.353
			c0-0.807-0.207-1.21-0.615-1.21c-0.145,0-0.275,0.073-0.385,0.222c-0.098,0.129-0.152,0.271-0.166,0.426h-0.514
			c-0.008-0.168-0.063-0.319-0.166-0.463c-0.115-0.156-0.252-0.235-0.41-0.235c-0.191,0-0.342,0.076-0.449,0.23
			c-0.092,0.139-0.141,0.305-0.141,0.507c0,0.425,0.254,0.634,0.762,0.634c0.051,0,0.105-0.002,0.162-0.007l-0.148,0.449
			c-0.078,0.007-0.135,0.012-0.172,0.012c-0.324,0-0.594-0.106-0.799-0.327c-0.207-0.217-0.313-0.488-0.313-0.82
			c0-0.337,0.102-0.608,0.301-0.82c0.197-0.208,0.465-0.313,0.803-0.313c0.33,0,0.611,0.194,0.846,0.586
			c0.262-0.392,0.527-0.586,0.803-0.586c0.225,0,0.416,0.182,0.568,0.544v-1.548h-3.684v-0.388h4.543v0.388H67.418z"/>
		<path fill="#4C4C4C" d="M69.064,18.266c-0.217,0-0.402-0.077-0.561-0.233c-0.156-0.152-0.234-0.337-0.234-0.557
			c0-0.217,0.078-0.402,0.234-0.558c0.158-0.153,0.344-0.231,0.561-0.231c0.223,0,0.41,0.078,0.564,0.231
			c0.154,0.149,0.23,0.336,0.23,0.558c0,0.223-0.076,0.409-0.23,0.562C69.475,18.188,69.287,18.266,69.064,18.266z M69.064,20.2
			c-0.217,0-0.402-0.076-0.561-0.232c-0.156-0.152-0.234-0.336-0.234-0.558c0-0.217,0.078-0.401,0.234-0.558
			c0.158-0.152,0.344-0.23,0.561-0.23c0.223,0,0.41,0.078,0.564,0.23c0.154,0.149,0.23,0.337,0.23,0.558
			c0,0.224-0.076,0.409-0.23,0.563C69.475,20.124,69.287,20.2,69.064,20.2z M69.098,17.105c-0.098,0-0.184,0.035-0.254,0.106
			c-0.07,0.074-0.105,0.161-0.105,0.258c0,0.235,0.117,0.353,0.348,0.353c0.102,0,0.191-0.034,0.264-0.104
			c0.076-0.068,0.113-0.151,0.113-0.256c0-0.099-0.037-0.182-0.107-0.253C69.281,17.138,69.195,17.105,69.098,17.105z
			 M69.123,19.097c-0.102,0-0.191,0.039-0.268,0.115c-0.078,0.073-0.117,0.164-0.117,0.267c0,0.106,0.033,0.198,0.1,0.269
			s0.152,0.105,0.26,0.105c0.102,0,0.188-0.037,0.26-0.116c0.068-0.077,0.105-0.168,0.105-0.271c0-0.102-0.031-0.189-0.094-0.264
			C69.309,19.134,69.227,19.097,69.123,19.097z"/>
	</g>
</g>
</svg>
