<svg width="21" height="20" viewBox="0 0 21 20" fill="none" xmlns="http://www.w3.org/2000/svg">
<path d="M18.0914 4.55718C18.4267 4.26483 18.4611 3.74893 18.1688 3.41359C18.0226 3.25022 17.8764 3.08684 17.713 2.93207C15.8214 1.04041 13.3106 0 10.6451 0C8.24614 0 5.97615 0.842648 4.17047 2.38177L2.79472 1.00602C2.58836 0.799656 2.28741 0.72227 2.01226 0.799656C1.72851 0.868444 1.51355 1.092 1.43616 1.36715L0.026018 6.62081C-0.0513681 6.90456 0.026018 7.1969 0.232381 7.40327C0.395751 7.55804 0.602114 7.64402 0.808477 7.64402C0.877265 7.64402 0.946052 7.63543 1.01484 7.61823L6.27709 6.20808C6.55224 6.1307 6.7758 5.91574 6.85319 5.63199C6.93057 5.34824 6.84459 5.05589 6.64683 4.84953L5.31407 3.53396C6.8102 2.29579 8.67606 1.62511 10.6365 1.62511C12.8721 1.62511 14.9787 2.49355 16.5608 4.08426C16.6898 4.21324 16.8188 4.35082 16.9392 4.48839C17.1025 4.66896 17.3261 4.76354 17.5497 4.76354C17.7474 4.75494 17.9366 4.69476 18.0914 4.55718Z" fill="#666666"/>
<path d="M8.4097 18.0826C8.04856 17.9794 7.68743 17.859 7.34349 17.7128C6.93076 17.5409 6.45785 17.73 6.27728 18.1428C6.10531 18.5555 6.29448 19.0284 6.7072 19.209C7.11993 19.3895 7.54125 19.5357 7.97977 19.6561C8.04856 19.6733 8.12595 19.6819 8.19474 19.6819C8.54727 19.6819 8.88261 19.4411 8.97719 19.0886C9.09757 18.6501 8.84822 18.2029 8.4097 18.0826Z" fill="#666666"/>
<path d="M12.1413 18.2545C11.7716 18.3233 11.3932 18.3663 11.0235 18.3835C10.5764 18.4007 10.2324 18.779 10.2496 19.2261C10.2668 19.6647 10.628 20 11.0579 20C11.0665 20 11.0837 20 11.0923 20C11.5394 19.9828 11.9865 19.9312 12.4336 19.8538C12.8722 19.7764 13.1645 19.3551 13.0871 18.908C13.0011 18.4609 12.5798 18.1685 12.1413 18.2545Z" fill="#666666"/>
<path d="M18.3492 6.69823C18.4954 7.04216 18.6243 7.4033 18.7189 7.76443C18.8221 8.12557 19.1489 8.35773 19.5014 8.35773C19.5702 8.35773 19.6476 8.34913 19.7164 8.33193C20.1463 8.21155 20.4042 7.76443 20.2839 7.33451C20.1635 6.90459 20.0173 6.47467 19.8367 6.06194C19.6562 5.64921 19.1832 5.46005 18.7705 5.63202C18.3578 5.81258 18.1686 6.2941 18.3492 6.69823Z" fill="#666666"/>
<path d="M15.5722 16.7843C15.2713 17.0079 14.9445 17.2056 14.6178 17.3862C14.2222 17.6011 14.0761 18.0913 14.291 18.4868C14.4372 18.7619 14.721 18.9167 15.0047 18.9167C15.1337 18.9167 15.2627 18.8823 15.3916 18.8221C15.7872 18.6072 16.1655 18.3664 16.5352 18.0999C16.8964 17.8333 16.9737 17.326 16.7158 16.9649C16.4406 16.5951 15.9333 16.5177 15.5722 16.7843Z" fill="#666666"/>
<path d="M19.1233 13.6458C18.7277 13.4308 18.2376 13.5856 18.0226 13.9725C17.8421 14.2992 17.6443 14.626 17.4208 14.9269C17.1542 15.2881 17.2402 15.7954 17.6013 16.0619C17.7475 16.1651 17.9109 16.2167 18.0742 16.2167C18.3236 16.2167 18.573 16.1049 18.7277 15.8814C18.9943 15.5202 19.235 15.1333 19.4414 14.7378C19.665 14.3422 19.5188 13.8521 19.1233 13.6458Z" fill="#666666"/>
<path d="M19.8625 9.59595C19.8539 9.59595 19.8367 9.59595 19.8281 9.59595C19.3981 9.59595 19.037 9.93989 19.0198 10.3698C19.0026 10.7481 18.9596 11.1265 18.8908 11.4876C18.8134 11.9261 19.1058 12.3475 19.5443 12.4334C19.5959 12.442 19.6389 12.4506 19.6905 12.4506C20.0774 12.4506 20.4214 12.1755 20.4901 11.78C20.5675 11.3414 20.6191 10.8943 20.6363 10.4472C20.6535 10.0001 20.3096 9.62174 19.8625 9.59595Z" fill="#666666"/>
<path d="M4.71228 15.9329C4.39414 15.6148 3.87823 15.6148 3.56869 15.9329C3.25054 16.2511 3.25054 16.7584 3.56869 17.0765C3.72346 17.2313 3.88683 17.3861 4.0502 17.5323C4.20497 17.6698 4.39414 17.73 4.5833 17.73C4.80686 17.73 5.03042 17.6354 5.19379 17.4549C5.48614 17.1195 5.45175 16.6036 5.11641 16.3113C4.98743 16.1909 4.84985 16.0619 4.71228 15.9329Z" fill="#666666"/>
</svg>
